<?xml version="1.0" encoding="UTF-8"?>
<svg id="Layer_2" data-name="Layer 2" xmlns="http://www.w3.org/2000/svg" viewBox="0 0 70 70">
  <defs>
    <style>
      .cls-1 {
        fill: #fff;
      }
    </style>
  </defs>
  <g id="Layer_1-2" data-name="Layer 1">
    <g>
      <path class="cls-1" d="M35,70C15.7,70,0,54.3,0,35S15.7,0,35,0s35,15.7,35,35-15.7,35-35,35ZM35,1.71C16.64,1.71,1.71,16.64,1.71,35s14.94,33.29,33.29,33.29,33.29-14.93,33.29-33.29S53.36,1.71,35,1.71Z"/>
      <g>
        <path class="cls-1" d="M28.92,41.52c-.93-.03-1.86-.14-2.76-.33-.21-.04-.43,0-.62.12l-4.11,2.7.23-3.95c.02-.31-.14-.6-.4-.75-3.62-2.17-5.78-5.66-5.78-9.34,0-6.37,6.31-11.56,14.06-11.56,6.58,0,12.21,3.68,13.69,8.94.12.44.58.69,1.02.57.44-.12.69-.58.57-1.02-1.68-5.97-7.97-10.14-15.28-10.14-8.66,0-15.7,5.92-15.7,13.2,0,4.11,2.29,7.99,6.15,10.48l-.29,5.09c-.02.31.14.6.41.76.13.07.27.11.41.11.16,0,.31-.05.45-.14l5.2-3.42c.88.16,1.79.26,2.69.29.45.01.84-.34.85-.79.02-.45-.34-.84-.79-.85Z"/>
        <path class="cls-1" d="M56.16,40.2c0-5.79-5.59-10.5-12.45-10.5s-12.45,4.71-12.45,10.5,5.59,10.5,12.45,10.5c.87,0,1.74-.08,2.59-.23l4.01,2.63c.14.09.29.14.45.14.14,0,.28-.04.41-.11.27-.16.43-.45.41-.76l-.22-3.88c3.02-1.98,4.8-5.05,4.8-8.28ZM50.08,47.34c-.26.16-.42.45-.4.75l.16,2.73-2.92-1.92c-.14-.09-.29-.14-.45-.14-.05,0-.11,0-.16.02-.85.17-1.73.26-2.6.26-5.96,0-10.8-3.97-10.8-8.85s4.85-8.85,10.8-8.85,10.8,3.97,10.8,8.85c0,2.8-1.66,5.47-4.43,7.14Z"/>
        <path class="cls-1" d="M48.58,38.88c-.73,0-1.32.59-1.32,1.32s.59,1.32,1.32,1.32,1.32-.59,1.32-1.32-.59-1.32-1.32-1.32Z"/>
        <circle class="cls-1" cx="43.71" cy="40.2" r="1.32"/>
        <path class="cls-1" d="M38.84,38.88c-.73,0-1.32.59-1.32,1.32s.59,1.32,1.32,1.32,1.32-.59,1.32-1.32-.59-1.32-1.32-1.32Z"/>
      </g>
    </g>
  </g>
</svg>