<?xml version="1.0" encoding="UTF-8"?>
<svg id="Layer_2" data-name="Layer 2" xmlns="http://www.w3.org/2000/svg" viewBox="0 0 70 70">
  <defs>
    <style>
      .cls-1 {
        fill: #fff;
      }
    </style>
  </defs>
  <g id="Layer_1-2" data-name="Layer 1">
    <g>
      <path class="cls-1" d="M35,70C15.7,70,0,54.3,0,35S15.7,0,35,0s35,15.7,35,35-15.7,35-35,35ZM35,1.71C16.64,1.71,1.71,16.64,1.71,35s14.93,33.29,33.29,33.29,33.29-14.93,33.29-33.29S53.36,1.71,35,1.71Z"/>
      <g>
        <path class="cls-1" d="M31.16,34.4c-.29.31-.64.61-1.07.92-.24.16-.64.5-1.2,1.02-.56.52-1.19,1.14-1.89,1.86-.17.18-.32.42-.46.74-.14.31-.21.56-.21.75,0,.29.11.55.33.77s.53.33.92.33h5.79c.35,0,.61-.09.78-.27.17-.18.26-.4.26-.65,0-.29-.11-.52-.32-.68-.22-.17-.53-.25-.94-.25h-4.11c.13-.2.26-.37.39-.51.29-.36.84-.86,1.63-1.5s1.35-1.12,1.69-1.42c.34-.3.67-.72.99-1.25.32-.53.48-1.12.48-1.77,0-.41-.08-.81-.23-1.2s-.37-.73-.65-1.02c-.28-.29-.6-.52-.97-.69-.57-.25-1.25-.38-2.05-.38-.67,0-1.25.1-1.74.3-.5.2-.91.46-1.23.78-.32.32-.57.68-.73,1.07-.16.39-.24.77-.24,1.13,0,.3.09.54.26.71s.39.26.65.26c.3,0,.53-.09.68-.28.15-.19.29-.46.42-.81.12-.35.21-.57.26-.65.39-.6.93-.91,1.62-.91.33,0,.63.07.9.22.28.15.49.35.65.62.16.26.24.57.24.9,0,.31-.07.63-.22.95-.15.32-.37.64-.65.94Z"/>
        <path class="cls-1" d="M41.41,29.1c-.25,0-.46.08-.63.25s-.4.43-.67.8l-4.17,5.58c-.12.15-.21.28-.29.39-.08.11-.15.21-.23.33-.07.11-.13.22-.17.32s-.06.2-.06.3c0,.39.12.7.37.92.25.23.62.34,1.12.34h3.95v1.46c0,.39.09.69.27.89.18.2.42.3.71.3s.54-.1.72-.3c.18-.2.27-.5.27-.9v-1.46h.48c.4,0,.7-.07.9-.21.2-.14.3-.36.3-.67,0-.37-.12-.61-.37-.72s-.57-.17-.97-.17h-.34v-6.09c0-.91-.4-1.37-1.2-1.37ZM40.64,36.56h-3.38l3.38-4.57v4.57Z"/>
        <path class="cls-1" d="M54.71,35.06s.01-.04.01-.06-.01-.04-.01-.06c-.02-5.03-1.94-10.06-5.77-13.89s-8.77-5.77-13.92-5.77c0,0-.02,0-.03,0,0,0-.02,0-.02,0-1.93,0-3.87.28-5.78.86-.43.13-.66.58-.53,1.01.13.43.58.66,1.01.53,1.49-.46,3.01-.71,4.52-.78v3.07c0,.45.36.81.81.81s.81-.36.81-.81v-3.07c4.45.2,8.74,2.03,12,5.29,3.33,3.33,5.07,7.64,5.26,12h-3.04c-.45,0-.81.36-.81.81s.36.81.81.81h3.04c-.19,4.37-1.93,8.68-5.26,12-3.33,3.33-7.64,5.07-12,5.26v-3.04c0-.45-.36-.81-.81-.81s-.81.36-.81.81v3.04c-4.37-.19-8.68-1.93-12-5.26-3.23-3.23-5.07-7.47-5.27-12h3.05c.45,0,.81-.36.81-.81s-.36-.81-.81-.81h-3.05c.19-4.27,1.84-8.26,4.72-11.41l1.93,1.93c.15.15.36.24.57.24.09,0,.17-.01.26-.04.29-.1.5-.35.54-.66l.77-5.81c.03-.25-.05-.5-.23-.68-.18-.18-.43-.26-.68-.23l-5.81.77c-.3.04-.56.25-.66.54-.1.29-.02.61.19.83l1.98,1.98c-3.37,3.65-5.24,8.35-5.24,13.35,0,5.27,2.05,10.22,5.78,13.95,3.83,3.83,8.86,5.75,13.89,5.77.02,0,.04.01.06.01s.04-.01.06-.01c5.03-.01,10.06-1.94,13.89-5.77,3.83-3.83,5.75-8.86,5.77-13.89Z"/>
      </g>
    </g>
  </g>
</svg>