<?xml version="1.0" encoding="UTF-8"?>
<svg id="Layer_2" data-name="Layer 2" xmlns="http://www.w3.org/2000/svg" viewBox="0 0 70 70">
  <defs>
    <style>
      .cls-1 {
        fill: #fff;
      }
    </style>
  </defs>
  <g id="Layer_1-2" data-name="Layer 1">
    <g>
      <path class="cls-1" d="M35,70C15.7,70,0,54.3,0,35S15.7,0,35,0s35,15.7,35,35-15.7,35-35,35ZM35,1.71C16.64,1.71,1.71,16.64,1.71,35s14.94,33.29,33.29,33.29,33.29-14.93,33.29-33.29S53.36,1.71,35,1.71Z"/>
      <g>
        <path class="cls-1" d="M35.68,19.6c-6.45-.26-12.39,3.94-13.81,10.34-.77,3.49-.18,7.23,1.74,10.26,1.02,1.61,2.63,2.73,3.63,4.32.55.87.91,1.85,1.06,2.87.1.69-.03,1.45.41,2.04.17.23.43.38.73.49-.01.95-.07,1.92.01,2.86.08.91.72,1.57,1.56,1.76v.33c0,.42-.04.88.08,1.29.25.83,1.01,1.35,1.85,1.38.21,0,.43,0,.64,0h2.79c.28,0,.56,0,.83,0,.66,0,1.25-.28,1.63-.82.37-.5.36-1.07.36-1.66v-.53c.53-.11,1-.34,1.31-.86.39-.65.29-1.46.29-2.19v-1.68c.24-.13.46-.3.61-.6.31-.62.17-1.47.3-2.13.21-1.07.65-2.08,1.29-2.96,1.1-1.49,2.57-2.57,3.53-4.19.95-1.58,1.56-3.36,1.79-5.19.97-7.75-4.94-14.6-12.65-15.13ZM37.62,55.6c0,.13-.05.23-.17.3-.1.06-.07.05-.22.05-.24,0-.48,0-.72,0h-3.42s-.1,0-.15,0c-.03,0-.06,0-.09,0,.13,0-.12-.06-.01,0-.05-.03-.1-.06-.14-.08.06.03-.03-.05-.03-.04-.1-.13-.07-.11-.07-.31,0-.2,0-.4,0-.6v-.3s.04,0,.06,0h4.47c.16,0,.33,0,.51,0,0,.33,0,.66-.01.99ZM39.22,52.6c-.04.36-.25.41-.56.41-.43,0-.87,0-1.3,0h-5.58c-.26,0-.64.07-.75-.26-.04-.13,0-.33,0-.46v-2.15c.86,0,1.73-.1,2.28-.1,1.97,0,3.94.03,5.91,0v.9c0,.54.06,1.12,0,1.65ZM31.99,36.31v.71c-.41,0-.81,0-1.22,0-.86,0-1.67-.55-1.59-1.51.12-1.51,2.31-1.76,2.75-.3.1.34.06.75.06,1.11ZM34.07,38.6c.77,0,1.55.01,2.32.02v9.84h-2.81v-9.86h.49ZM42.59,42.17c-1.03,1.04-1.79,2.31-2.22,3.72-.17.57-.28,1.17-.34,1.77-.05.54.12.66-.21.82-.42.19-1.38,0-1.85,0v-8.74c0-.37,0-.74,0-1.12.47,0,.94,0,1.41-.01,1.55-.06,2.87-1.19,2.98-2.78.11-1.62-1.14-3.08-2.77-3.19-1.63-.11-3.06,1.14-3.19,2.77-.03.41-.01.82-.01,1.23v.39h-.64c-.72,0-1.44,0-2.16,0,.03-1.43.01-2.92-1.27-3.84-1.27-.9-3.06-.66-4.04.54-1.04,1.26-.84,3.17.42,4.2.75.61,1.6.68,2.51.68h.78v9.87c-.52,0-1.38.18-1.85,0-.07-.03-.11-.03-.14-.02,0-.06,0-.17-.05-.35-.16-.73-.15-1.46-.37-2.19-.42-1.42-1.2-2.7-2.23-3.76-2.55-2.6-4.25-5.4-4.25-9.17,0-6.91,5.77-12.07,12.56-11.8,6.2.42,11.17,5.59,11.17,11.85,0,3.74-1.73,6.56-4.26,9.13ZM37.97,37.02c0-.42,0-.84,0-1.26.01-.85.58-1.62,1.51-1.55,1.51.12,1.77,2.31.3,2.75-.43.13-.96.06-1.4.06h-.42Z"/>
        <path class="cls-1" d="M19.35,33.61c.41,0,.81-.36.79-.79-.02-.43-.35-.79-.79-.79h-3.91c-.41,0-.81.36-.79.79.02.43.35.79.79.79h3.91Z"/>
        <path class="cls-1" d="M54.56,32.02h-3.91c-.41,0-.81.36-.79.79.02.43.35.79.79.79h3.91c.41,0,.81-.36.79-.79-.02-.43-.35-.79-.79-.79Z"/>
        <path class="cls-1" d="M35,17.96c.43-.02.79-.35.79-.79v-3.91c0-.41-.36-.81-.79-.79-.43.02-.79.35-.79.79v3.91c0,.41.36.81.79.79Z"/>
        <path class="cls-1" d="M42.42,19.95c.38.2.86.1,1.08-.28.57-.99,1.14-1.98,1.71-2.96.08-.14.16-.28.24-.42.21-.36.1-.88-.28-1.08-.38-.2-.86-.1-1.08.28-.57.99-1.14,1.98-1.71,2.96-.08.14-.16.28-.24.42-.21.36-.1.88.28,1.08Z"/>
        <path class="cls-1" d="M17.66,23.72c.99.57,1.98,1.14,2.96,1.71.14.08.28.16.42.24.36.21.88.1,1.08-.28.2-.38.1-.86-.28-1.08-.99-.57-1.98-1.14-2.96-1.71-.14-.08-.28-.16-.42-.24-.36-.21-.88-.1-1.08.28-.2.38-.1.86.28,1.08Z"/>
        <path class="cls-1" d="M52.34,41.91c-.99-.57-1.98-1.14-2.96-1.71l-.42-.24c-.36-.21-.88-.1-1.08.28-.2.38-.1.86.28,1.08.99.57,1.98,1.14,2.96,1.71.14.08.28.16.42.24.36.21.88.1,1.08-.28.2-.38.1-.86-.28-1.08Z"/>
        <path class="cls-1" d="M26.25,19.24c.08.14.16.28.24.42.21.36.73.52,1.08.28.36-.23.51-.7.28-1.08-.57-.99-1.14-1.98-1.71-2.96-.08-.14-.16-.28-.24-.42-.21-.36-.73-.52-1.08-.28-.36.23-.51.7-.28,1.08.57.99,1.14,1.98,1.71,2.96Z"/>
        <path class="cls-1" d="M21.05,39.95c-.99.57-1.98,1.14-2.96,1.71-.14.08-.28.16-.42.24-.36.21-.52.73-.28,1.08.23.36.7.51,1.08.28.99-.57,1.98-1.14,2.96-1.71.14-.08.28-.16.42-.24.36-.21.52-.73.28-1.08-.23-.36-.7-.51-1.08-.28Z"/>
        <path class="cls-1" d="M48.95,25.67c.99-.57,1.98-1.14,2.96-1.71.14-.08.28-.16.42-.24.36-.21.52-.73.28-1.08-.23-.36-.7-.51-1.08-.28-.99.57-1.98,1.14-2.96,1.71-.14.08-.28.16-.42.24-.36.21-.52.73-.28,1.08.23.36.7.51,1.08.28Z"/>
      </g>
    </g>
  </g>
</svg>