<svg xmlns="http://www.w3.org/2000/svg" viewBox="0 0 482.4 151.2">
    <defs>
        <style>
        .b {
            fill: #dce4e3;
        }       
        </style>
    </defs>
<g class="a"><path class="b" d="M68.5,12.75A60.5,60.5,0,1,0,129,73.25,60.57,60.57,0,0,0,68.5,12.75Zm50.33,60.5a50,50,0,1,1-50-50A50.06,50.06,0,0,1,118.83,73.25Z"></path><path class="b" d="M102.42,86c3.46-.17,7.62-1.75,7.48-6-.19-2.53-2.8-4-5-5.26A45.22,45.22,0,0,1,102.42,86Zm-1-15.84c.12-6.37-3-11-5.21-15.3a22.45,22.45,0,0,1-3.15.66c-.71,2.14-.08,5.37-.66,7.87-.92.4-1,1.64-2.23,1.72-.69,1.84-3.2,1.87-5,2.63.65.79,1.13,1.76,2.62,1.7,0-.65.39-.83.66-1.19.21.07.11.42.53.28v-1a4.33,4.33,0,0,0,2-.66c.81.62,2.47.41,3.15,1.18-.67-5.3,8.1-3.5,5.65,1.31C100.22,69.49,101,69.91,101.44,70.12Zm-3.5,16.09c2.32-3.5,2.89-8.75,3.55-13.92-.67,1.09-1.22,2.29-1.84,3.42a6.15,6.15,0,0,1-4.07-.8c-1.31,1.84-4.43.33-6.31,0-1.65.46-3.4,2.07-5.26,1.46-1.16,3.08-6.11,4.75-4.33,9A157.77,157.77,0,0,0,97.94,86.21ZM96.76,73.47c1.24-.5,2.86-.64,2.89-2.37a11.92,11.92,0,0,1-3.42-1c0-.43.29-.58.4-.93H98.2c.66-1.38-.59-1.67-.78-2.61-1.93.48-1.76,3.06-3.42,3.81a4.82,4.82,0,0,0-3.29-1.84c0,.25-.17.26-.26.39.75.31.92,1.19,1.45,1.71-.33.41-.39,1.1-1.19,1-.13-.56.15-.73.27-1-.64-.24-1.08-.68-1.71-.93-.51.86-2.18,2.61-2.89.93a1.09,1.09,0,0,0-.66,1c-1.9,1.66-5.93.58-4.47-2.23a4,4,0,0,1,3,.26c-.1-.41.45-.16.26-.66-3.19-1.86,1.29-3.81,3.81-3.93.47-.72.79-1.58,1.71-1.84V61.79c-.81-.42-1.18-1.29-2-1.71a1.6,1.6,0,0,1-.79,1.71c0-.2,0-.5-.13-.54,0,1-.85,1-1.32,1.46a2,2,0,0,0-.92-.67c1-1.31.52-4,1.19-5.65a3.36,3.36,0,0,0,2.89.8c.38.79.8,1.56,1.18,2.35,0-1.6.56-2.66.52-4.33,1.26-1,1.84-2.62,4.34-2.36-.3-.73-.43-.67-1-1.6-5.19.84-9.1-1.11-14.06-1.29,0-.26-.18-.26-.26-.39,1.11-2.75,4.88-2.83,7.22-4.34-3.35-1.56-6.44-3.38-10.77-3.94a1.3,1.3,0,0,1-.36.77s4.35,1.52,6,2.38c-1,.14-1.48.89-2.63.91a7.21,7.21,0,0,1,.79,1.32C77.87,48,74.31,47.88,72.06,49c.19,1.06-.55,1.2-.92,1.71a4.58,4.58,0,0,0-1.58.13c.18.52-.28.41-.26.78,1.77,1.13-.51,3.59-2.1,3.82-.74,2.14-2.06,3.73-2.63,6,0,0-3.4,8-4.86,12.21-.21,1-.71,1.74-.92,2.76,1.35,1.4-.76,3.29.26,5.13,1.07.06,16.58,3.47,18,3.42a2,2,0,0,1-.26-1.45c1.11-3.93,3.64-6.43,5.91-9.2,1.29-.14,2.45,0,3.94-.13.69-.54,1.65-.8,2.23-1.45,1.51.57,3.56.57,5.26.92.34-.22.45-.69.79-.92C95.79,72.79,96.44,73,96.76,73.47ZM95.58,92.91V92c-.37-.2-.75-.38-.79-.91-.93,0-1.77,0-1.71.91a45.5,45.5,0,0,1-7,2.38,18.83,18.83,0,0,0-5.79-2.11c-.86-1.64-1.82-3.17-2.62-4.86a177.6,177.6,0,0,1-20.1-3.81c-2.56,4.69-4.24,13.69-.92,18.53a37.62,37.62,0,0,0,18.65,2.62C84.24,103,90.47,98.49,95.58,92.91Zm-2.34-4.25c-.88,0-11.79-.94-12.64-.74C82.28,92.08,90.65,92.09,93.24,88.66Zm-10-40.14c3.55-.38,5.76,1.75,8.67,1.18a18.07,18.07,0,0,0-3.42-2.63C87,47.84,84.91,48,83.23,48.52Zm5.12,10.64c0-.37-.44-.27-.26-.79H86.9c.2.75-.4.72-.26,1.44A3.41,3.41,0,0,1,88.35,59.16ZM78.15,38.69C82,39.5,85.51,41.54,88.74,43c-.29-4.15-.88-9.69-3.84-9.81C81.77,33,78.7,37.36,78.15,38.69Zm6.13,32.69c1.46-2-.56-.28-2-1A1.8,1.8,0,0,0,84.28,71.38Zm-6.57-25.5c0-.54-.59-.47-.4-1.17.37-.12.79-.18.92-.54-1.39-.09-2.39-.66-3.77-.77-.71,1.32-1.5,2.35-2.27,3.67C73.22,45.87,76.5,46.91,77.71,45.88Zm-7.83-4.13C58.09,41.69,51.35,47.6,46,54c.12,1.21-.26,2.88.27,3.68a4.25,4.25,0,0,1-1.71,1.17c.09.31-.24,1,.26.93a8.78,8.78,0,0,1,5.65-3.15A27.29,27.29,0,0,0,61.42,58.1c.19-.85-.42-.89-.27-1.71-1.47-.62-3.74-.45-5.52-.79,1.64-1.29,4-1.82,5.39-3.41.54-1.79,2.94-1.7,4.47-2.49a15.87,15.87,0,0,1,1.18-2.37c.54-1,1.19-1.87,1.71-2.89C68.76,43.73,69.52,42.48,69.88,41.75Zm-7,13.33c.52-.92.85-2,1.45-2.89-1.65.27-2,1.85-3.16,2.63C62,54.62,62.14,55.14,62.86,55.08Zm-2.36,5c-2.38.41-5.34-.77-8.15-.79C52.14,60.83,51,61.46,50,62.17c0-.26-.17-.26-.26-.38.44-.85.55-2,.92-2.91-2.54-.44-4.52,1.86-5.52,3.83.62.08,1.58-.18,2,.13-.62,1.41-3.25,2.15-2.49,4.06.1,1.64-.79,2.27-1.18,3.43,1.43,0,2.28.52,3.67.52-.05,1.11,1.21.9,1.19,2h1.44c.58.83,1.65,1.16,1.84,2.37,1.14.22,1.41,1.3,2.89,1.19,1-1.58,1.21-4,2-5.78.59-1.7,1.35-3.21,1.84-5C59,63.78,59.88,62,60.5,60.08Zm-4.6,51.63c4.39,2.59,8.34-1.68,10.38-4.33a30.4,30.4,0,0,1-12.22-3.68C53.78,107.25,54.08,110.54,55.9,111.71Zm-2.37-31.8c0-.73.36-1,.53-1.58-4.93,1.58-3.46-4.58-7.1-3.42a2.91,2.91,0,0,1-.92-1.7c-.6-.09-.92-.48-1.44-.65.92,2.09-.79,2.56-1.45,3.81.62-.15.51.45,1.19.25.43.88,2,.59,2.75,1.18A59.21,59.21,0,0,0,53.53,79.91Zm-.79,2.23c-1,0-1.28-.64-2.36-.52a48.58,48.58,0,0,0-6.44-2.11A2.26,2.26,0,0,0,42.23,79c-.15.55-.64.76-.52,1.57C44.2,85.74,45.33,92.28,50,95.29c-.06-.82.81-4.25.92-5.53,0-.1.5-2.27.5-2.35C51.77,85.69,52.43,84.06,52.74,82.14ZM44.2,57.44c-.08-1,.22-2.32-.26-2.88a30.82,30.82,0,0,0-5.78,19.7c1.53,0,1.89,1.1,3.28,1.19.3-1.29,1.9-1.25,1.58-3.16-2.3-.23-2.72-4.59,0-4.59-.17-3,.51-6.18-.26-8.67C43.32,58.58,43.4,57.66,44.2,57.44ZM39.61,79a1.73,1.73,0,0,0,.92-.92c-.67-.25-1.31-.53-2-.78-.1,0-.15.1-.13.25.65,3.21,1.28,6.44,2.89,8.67C41.2,83.36,39.6,82,39.61,79ZM35,72a32.41,32.41,0,0,1,2.23-11.44c-3.44.5-7,1.29-8,3.81C28,67.92,32.22,70.35,35,72Zm81.45,9.59c-.88,6.92-13.38,7.3-15.5,7.22-6.28,10.94-15.79,18.63-32.71,18.92C67.17,110.12,57.08,121,53,119.59c-4.93-1.55-4.52-11.81-3.81-18.79C42,95.13,36.43,87.72,35.27,76c-5.42-2.94-14.5-6.28-14.19-10.9.44-6,9.69-7,17.47-7.63,6.3-11.7,16-20,34.3-19.7,1.32-2.4,7.82-12,14.05-10.39C92.08,28.5,91.06,44.09,91,44.84c7.47,5.79,12.82,13.7,13.92,25.87C110.21,72.25,116.58,76.54,116.46,81.62Z"></path><path class="b" d="M463.75,105.25h-344v-64h344ZM133.68,84.89V86.3h3.38V98h1.44V86.3h3.38V84.89ZM152.15,98h1.43V92.38h3.15a1.51,1.51,0,0,1,.7.14,1.48,1.48,0,0,1,.47.38,1.38,1.38,0,0,1,.28.52,1.9,1.9,0,0,1,.09.58v2.53c0,.11,0,.23,0,.37a3,3,0,0,0,.05.42,2.11,2.11,0,0,0,.09.38,1.07,1.07,0,0,0,.17.3h1.62a1.75,1.75,0,0,1-.36-.59,2.72,2.72,0,0,1-.14-.91V94a3.75,3.75,0,0,0-.29-1.5,1.58,1.58,0,0,0-1.15-.88,1.35,1.35,0,0,0,.67-.4,3.07,3.07,0,0,0,.52-.8,5.09,5.09,0,0,0,.34-1,4.57,4.57,0,0,0,.13-1.09,3.77,3.77,0,0,0-.2-1.16,4.42,4.42,0,0,0-.55-1.11,3,3,0,0,0-.86-.84,1.89,1.89,0,0,0-1.11-.34h-5.06Zm1.43-11.7h3.11a1.07,1.07,0,0,1,.63.2,2.07,2.07,0,0,1,.55.52,2.73,2.73,0,0,1,.38.74,2.31,2.31,0,0,1,.15.8,2.92,2.92,0,0,1-.14.86,2.88,2.88,0,0,1-.36.77,2.06,2.06,0,0,1-.54.56,1.12,1.12,0,0,1-.67.22h-3.11Zm20.33-1.41L170.08,98h1.58l1.1-4.14h4.05l1.1,4.14h1.58l-3.85-13.11Zm.86,1.41h0l1.64,6.15h-3.29Zm15,11.7h4.42a3.09,3.09,0,0,0,1.82-.56A4.8,4.8,0,0,0,197.32,96a7.68,7.68,0,0,0,.83-2.11,10.32,10.32,0,0,0,.29-2.41,10,10,0,0,0-.29-2.38,7.38,7.38,0,0,0-.84-2.09,4.91,4.91,0,0,0-1.36-1.5,3.24,3.24,0,0,0-1.88-.57h-4.32Zm1.44-11.7h2.6a2.54,2.54,0,0,1,1.37.37,3.12,3.12,0,0,1,1,1.06,5.59,5.59,0,0,1,.61,1.63,10.23,10.23,0,0,1,.2,2.09,9.77,9.77,0,0,1-.2,2,5.82,5.82,0,0,1-.62,1.63,3.57,3.57,0,0,1-1,1.12,2.31,2.31,0,0,1-1.37.41h-2.58Zm18.14-1.41V98h7.47V96.59h-6V91.94h5.44V90.53h-5.44V86.3h5.78V84.89Zm35.64,0L241.14,98h1.58l1.1-4.14h4.05L249,98h1.58L246.7,84.89Zm.87,1.41h0l1.63,6.15H244.2Zm14.61,7.46a4.59,4.59,0,0,0,.34,1.78,4.83,4.83,0,0,0,.89,1.45A4.38,4.38,0,0,0,263,98a3.51,3.51,0,0,0,1.51.35,4.78,4.78,0,0,0,1.54-.24,3.71,3.71,0,0,0,1.24-.72,3.12,3.12,0,0,0,.81-1.14,4.08,4.08,0,0,0,.29-1.58,3.72,3.72,0,0,0-.3-1.52,3.85,3.85,0,0,0-.8-1.18,4.92,4.92,0,0,0-1.16-.84,6.47,6.47,0,0,0-1.35-.51,7,7,0,0,1-.87-.31,3,3,0,0,1-.84-.5,2.65,2.65,0,0,1-.62-.75,2,2,0,0,1-.25-1,1.75,1.75,0,0,1,.19-.83,2.27,2.27,0,0,1,.49-.65,2.35,2.35,0,0,1,1.5-.54,1.84,1.84,0,0,1,.85.21,2.42,2.42,0,0,1,.72.56,2.85,2.85,0,0,1,.5.85,2.9,2.9,0,0,1,.19,1.07h1.44a5.72,5.72,0,0,0-.17-1.28,4.12,4.12,0,0,0-.59-1.34A3.37,3.37,0,0,0,266.16,85a3.54,3.54,0,0,0-1.81-.43,3.63,3.63,0,0,0-1.34.26,3.76,3.76,0,0,0-1.16.72,3.87,3.87,0,0,0-.81,1.1,3.15,3.15,0,0,0-.31,1.36,3.72,3.72,0,0,0,.29,1.48,3.76,3.76,0,0,0,.75,1.14,4.24,4.24,0,0,0,1.06.82,5.08,5.08,0,0,0,1.22.48,9.8,9.8,0,0,1,1,.32,3.53,3.53,0,0,1,.93.52,2.79,2.79,0,0,1,.7.79,2.07,2.07,0,0,1,.28,1.1,2.19,2.19,0,0,1-.2,1,2.06,2.06,0,0,1-.53.7,2.12,2.12,0,0,1-.78.43,3.29,3.29,0,0,1-.94.14,2.12,2.12,0,0,1-1.06-.27,2.88,2.88,0,0,1-.82-.7,3.33,3.33,0,0,1-.52-1,4,4,0,0,1-.18-1.17Zm18.54,0a4.59,4.59,0,0,0,.34,1.78,4.83,4.83,0,0,0,.89,1.45,4.38,4.38,0,0,0,1.29,1,3.51,3.51,0,0,0,1.51.35,4.78,4.78,0,0,0,1.54-.24,3.71,3.71,0,0,0,1.24-.72,3.12,3.12,0,0,0,.81-1.14,4.08,4.08,0,0,0,.29-1.58,3.72,3.72,0,0,0-.3-1.52,3.85,3.85,0,0,0-.8-1.18,4.92,4.92,0,0,0-1.16-.84,6.47,6.47,0,0,0-1.35-.51,7,7,0,0,1-.87-.31,3,3,0,0,1-.84-.5A2.65,2.65,0,0,1,281,89a2,2,0,0,1-.25-1,1.75,1.75,0,0,1,.19-.83,2.27,2.27,0,0,1,.49-.65,2.35,2.35,0,0,1,1.5-.54,1.81,1.81,0,0,1,.85.21,2.42,2.42,0,0,1,.72.56,2.85,2.85,0,0,1,.5.85,2.9,2.9,0,0,1,.19,1.07h1.44a5.72,5.72,0,0,0-.17-1.28,4.12,4.12,0,0,0-.59-1.34A3.37,3.37,0,0,0,284.7,85a3.54,3.54,0,0,0-1.81-.43,3.63,3.63,0,0,0-1.34.26,3.76,3.76,0,0,0-1.16.72,3.87,3.87,0,0,0-.81,1.1,3.15,3.15,0,0,0-.31,1.36,3.72,3.72,0,0,0,.29,1.48,4,4,0,0,0,.75,1.14,4.24,4.24,0,0,0,1.06.82,5.08,5.08,0,0,0,1.22.48,9.8,9.8,0,0,1,1,.32,3.53,3.53,0,0,1,.93.52,2.79,2.79,0,0,1,.7.79,2.07,2.07,0,0,1,.28,1.1,2.19,2.19,0,0,1-.2,1,2.06,2.06,0,0,1-.53.7,2.12,2.12,0,0,1-.78.43,3.29,3.29,0,0,1-.94.14,2.12,2.12,0,0,1-1.06-.27,2.88,2.88,0,0,1-.82-.7,3.33,3.33,0,0,1-.52-1,4,4,0,0,1-.18-1.17Zm25.37,4a5.06,5.06,0,0,0,1.55-1.54,7.74,7.74,0,0,0,1-2.22,9.64,9.64,0,0,0,.35-2.59,9.51,9.51,0,0,0-.35-2.58,7.26,7.26,0,0,0-1-2.18,4.92,4.92,0,0,0-1.55-1.5,3.73,3.73,0,0,0-2-.57,3.78,3.78,0,0,0-2,.57,5,5,0,0,0-1.55,1.5,7.79,7.79,0,0,0-1,2.18,9.51,9.51,0,0,0-.35,2.58,10.05,10.05,0,0,0,.34,2.59,8,8,0,0,0,1,2.22,5.28,5.28,0,0,0,1.55,1.54,3.78,3.78,0,0,0,2,.57A3.85,3.85,0,0,0,304.36,97.74Zm-3.48-1.28a3.5,3.5,0,0,1-1.06-1.13,5.78,5.78,0,0,1-.66-1.73,10.16,10.16,0,0,1-.22-2.21,9.75,9.75,0,0,1,.23-2.19,5.86,5.86,0,0,1,.67-1.7,3.2,3.2,0,0,1,1.06-1.1,2.63,2.63,0,0,1,1.42-.38,2.67,2.67,0,0,1,1.44.38,3.11,3.11,0,0,1,1.06,1.1,5.59,5.59,0,0,1,.66,1.7,9.75,9.75,0,0,1,.23,2.19,10.13,10.13,0,0,1-.23,2.21,5.78,5.78,0,0,1-.66,1.73,3.39,3.39,0,0,1-1.06,1.13,2.79,2.79,0,0,1-2.88,0Zm18.31-7a6.17,6.17,0,0,1,.65-1.64,4,4,0,0,1,1-1.18,2.17,2.17,0,0,1,1.34-.45,3.19,3.19,0,0,1,2,.6,3.07,3.07,0,0,1,1.07,1.85h1.43a4.77,4.77,0,0,0-.44-1.55,4.53,4.53,0,0,0-.93-1.24,4.27,4.27,0,0,0-1.37-.82,4.92,4.92,0,0,0-1.76-.3,3.51,3.51,0,0,0-2,.6,5.31,5.31,0,0,0-1.49,1.53,7.62,7.62,0,0,0-.94,2.11,8.88,8.88,0,0,0-.32,2.32,10.77,10.77,0,0,0,.33,2.74,7.23,7.23,0,0,0,.95,2.18,4.66,4.66,0,0,0,1.51,1.43,3.9,3.9,0,0,0,2,.52,4.42,4.42,0,0,0,1.78-.35,4,4,0,0,0,1.36-1,4.83,4.83,0,0,0,.91-1.44,6.53,6.53,0,0,0,.45-1.79h-1.43a3.89,3.89,0,0,1-.3,1.16,3.35,3.35,0,0,1-.63,1,3.22,3.22,0,0,1-.94.69,2.77,2.77,0,0,1-1.2.25,2.19,2.19,0,0,1-1.2-.37,3.45,3.45,0,0,1-1-1.08,6.12,6.12,0,0,1-.73-1.71,8.69,8.69,0,0,1-.26-2.25A7.17,7.17,0,0,1,319.19,89.46Zm18.22-4.57V98h1.44V84.89Zm15.62,0L349.19,98h1.59l1.1-4.14h4.05L357,98h1.59l-3.85-13.11Zm.86,1.41h0l1.64,6.15h-3.3ZM368,84.89V86.3h3.38V98h1.44V86.3h3.38V84.89Zm18.54,0V98H388V84.89Zm19.15,12.85a5.06,5.06,0,0,0,1.55-1.54,8,8,0,0,0,1-2.22,9.64,9.64,0,0,0,.35-2.59,9.51,9.51,0,0,0-.35-2.58,7.53,7.53,0,0,0-1-2.18,5,5,0,0,0-1.54-1.5,4,4,0,0,0-4.09,0,5,5,0,0,0-1.54,1.5,7.26,7.26,0,0,0-1,2.18,9.14,9.14,0,0,0-.35,2.58A9.63,9.63,0,0,0,399,94a7.72,7.72,0,0,0,1,2.22,5.06,5.06,0,0,0,1.55,1.54,3.73,3.73,0,0,0,2,.57A3.81,3.81,0,0,0,405.66,97.74Zm-3.47-1.28a3.52,3.52,0,0,1-1.07-1.13,6.06,6.06,0,0,1-.65-1.73,10.13,10.13,0,0,1-.23-2.21,9.18,9.18,0,0,1,.24-2.19,5.59,5.59,0,0,1,.66-1.7,3.2,3.2,0,0,1,1.06-1.1,2.9,2.9,0,0,1,2.87,0,3.2,3.2,0,0,1,1.06,1.1,5.58,5.58,0,0,1,.65,1.7,9.75,9.75,0,0,1,.23,2.19,10.13,10.13,0,0,1-.23,2.21,5.77,5.77,0,0,1-.65,1.73,3.5,3.5,0,0,1-1.06,1.13,2.79,2.79,0,0,1-2.88,0Zm17-11.57V98h1.44V87.46h.05l5,10.54h1.72V84.89H426v10.5h-.06L421,84.89ZM145.45,52.08h-.18L136.6,69.3c-1.86,3.69-2.52,4.5-3.27,5.37h5.49A10.21,10.21,0,0,1,140,70.11l1.14-2.43H149l1.32,3a9,9,0,0,1,.93,4l5.34-.06a30.35,30.35,0,0,1-3.51-6.09ZM145.21,59l2.61,6h-5.46Zm14,8.82c0,4.14-.42,5.43-.9,6.84h5.43c7.23,0,11.7-5.19,11.7-11a10.84,10.84,0,0,0-2.25-6.72c-3.42-4.38-8.4-4.77-12.54-4.77-1,0-1.56.06-2.34.12a20.7,20.7,0,0,1,.9,6.06Zm3.36-9.48a33.52,33.52,0,0,1,.18-4.11c7.14,1,8.73,5.94,8.73,9.09,0,3.54-2,8.49-8.73,9.15a43.2,43.2,0,0,1-.18-5.19Zm12.82-6.18A9.12,9.12,0,0,1,177,54.69c.69,1.38,1.47,3.18,1.74,3.87l6.33,16.26h2.55L195,57.33a18.62,18.62,0,0,1,3-5.07l-5.85-.09a4.68,4.68,0,0,1,.27,1.47,12.28,12.28,0,0,1-1.08,4.08l-4.83,11.52-4.68-11.91a14.37,14.37,0,0,1-1-4,4.07,4.07,0,0,1,.21-1.2Zm24.3,0a19.71,19.71,0,0,1,.84,5.7v11a18.15,18.15,0,0,1-.84,5.79h11.79l1.65-3.75c-4.77,1.62-6.36,1.62-9.24,1.62V64.32a19.75,19.75,0,0,1,5.13,1l1.92-3.15h-7V54.3a11.7,11.7,0,0,1,6.21,1.35l1.71-3.48Zm13.92,0a15.26,15.26,0,0,1,3,3V68.73a23.74,23.74,0,0,1-.75,5.94h4.77a21.14,21.14,0,0,1-.9-6.6V59.19l9.57,12.24a10.77,10.77,0,0,1,1.92,3.24h4.17a14.47,14.47,0,0,1-.75-5.61V57a17.24,17.24,0,0,1,.57-4.8H230.9c.36,1.29.63,2.34.63,6.48V68.88L221.36,56a12.8,12.8,0,0,1-2.4-3.81Zm25.29,0L237.67,56c4.36-1.56,5.68-1.56,7.18-1.53V68.94a23.19,23.19,0,0,1-.64,5.73h4.6a20.24,20.24,0,0,1-.64-5.37V54.45a12.21,12.21,0,0,1,5.89,1.2l1.56-3.45Zm18.48,0c.39,1,.72,1.74.72,5.16v8.88c0,5.13,2.67,8.67,7.32,8.67a13.77,13.77,0,0,0,7.14-2.43,11.5,11.5,0,0,1-.15,2.22h4a25.35,25.35,0,0,1-.6-5.91v-12c0-2.94.24-3.63.6-4.59h-4.8a13.08,13.08,0,0,1,.81,5.16v8.88a7.84,7.84,0,0,1-.18,2.25A5.6,5.6,0,0,1,267,72.39a5.73,5.73,0,0,1-5.16-3.54,8.13,8.13,0,0,1-.44-3.09V57.57a13.18,13.18,0,0,1,.72-5.4ZM281,68.85a25.94,25.94,0,0,1-.59,5.82h4.55a15.9,15.9,0,0,1-.63-4.86V64.26c4.66,6.18,6,7.8,9.07,10.41h3.09A73,73,0,0,1,289,64.59c1-.54,4.27-2.34,4.27-6,0-3-2.73-6.51-8.52-6.42l-4.38.06a14.31,14.31,0,0,1,.59,4.65Zm3.33-14.76c4.5.45,5.56,3.15,5.56,4.83,0,3.45-3.43,4.41-5.56,5Zm14.13-1.92a19.71,19.71,0,0,1,.84,5.7v11a18.15,18.15,0,0,1-.84,5.79h11.79l1.65-3.75c-4.77,1.62-6.36,1.62-9.24,1.62V64.32a19.75,19.75,0,0,1,5.13,1l1.92-3.15h-7.05V54.3a11.7,11.7,0,0,1,6.21,1.35l1.71-3.48Zm23.05,0L320.27,56c4.35-1.56,5.67-1.56,7.17-1.53V68.94a23.28,23.28,0,0,1-.63,5.73h4.59a20.24,20.24,0,0,1-.63-5.37V54.45a12.19,12.19,0,0,1,5.88,1.2l1.56-3.45Zm19.59,16.65a25.41,25.41,0,0,1-.6,5.82H345a15.59,15.59,0,0,1-.63-4.86V64.26c4.65,6.18,6,7.8,9.06,10.41h3.09a72.1,72.1,0,0,1-7.44-10.08c1-.54,4.26-2.34,4.26-6,0-3-2.73-6.51-8.52-6.42l-4.38.06a14.2,14.2,0,0,1,.6,4.65Zm3.33-14.76c4.5.45,5.55,3.15,5.55,4.83,0,3.45-3.42,4.41-5.55,5Zm24.93-2h-.18L360.47,69.3c-1.86,3.69-2.52,4.5-3.27,5.37h5.49a10.21,10.21,0,0,1,1.14-4.56L365,67.68h7.89l1.32,3a9,9,0,0,1,.93,4l5.34-.06a30.35,30.35,0,0,1-3.51-6.09ZM369.08,59l2.61,6h-5.46Zm7.5-6.84a9.12,9.12,0,0,1,1.65,2.52c.69,1.38,1.47,3.18,1.74,3.87l6.33,16.26h2.55l7.35-17.49a18.62,18.62,0,0,1,3-5.07l-5.85-.09a4.68,4.68,0,0,1,.27,1.47,12.28,12.28,0,0,1-1.08,4.08l-4.83,11.52L383,57.33a14.37,14.37,0,0,1-1-4,4.07,4.07,0,0,1,.21-1.2Zm24.3,0a19.71,19.71,0,0,1,.84,5.7v11a18.15,18.15,0,0,1-.84,5.79h11.79l1.65-3.75c-4.77,1.62-6.36,1.62-9.24,1.62V64.32a19.75,19.75,0,0,1,5.13,1l1.92-3.15h-7.05V54.3a11.7,11.7,0,0,1,6.21,1.35L413,52.17Zm28.44,18.27a27.74,27.74,0,0,1-8.67,2l.12-14.67a13,13,0,0,1,.87-5.52h-5a12.91,12.91,0,0,1,.78,5.31v9.93c0,4.92-.33,5.79-.9,7.23h11Z"></path><path class="b" d="M141,124.31h-1.16l-.69-6.57h0l-2.35,6.57h-1.19L134.44,116h1.14l.77,6.74h0l2.41-6.74h1.14l.69,6.74h0L143,116h1.16Z"></path><path class="b" d="M157.38,124.31h-1.16l-.69-6.57h0l-2.35,6.57H152L150.85,116H152l.77,6.74h0L155.2,116h1.14l.69,6.74h0l2.37-6.74h1.16Z"></path><path class="b" d="M173.79,124.31h-1.16l-.69-6.57h0l-2.35,6.57h-1.19L167.26,116h1.14l.77,6.74h0l2.41-6.74h1.14l.69,6.74h0l2.37-6.74H177Z"></path><path class="b" d="M185.44,124.31h-1.51l.21-1.75h1.51Z"></path><path class="b" d="M198.81,124.31v-1a4.13,4.13,0,0,1-2.56,1.29,2,2,0,0,1-2-2.37c.3-2.37,2.85-2.88,4.74-3.37l.39-.11.06-.46c.1-.95-.47-1.46-1.4-1.46a2.92,2.92,0,0,0-2.19,1.31l-.75-.62a4,4,0,0,1,3.06-1.68,2.25,2.25,0,0,1,2.43,2.58l-.51,4.11a5.11,5.11,0,0,0,0,1.83Zm0-4.51c-1.16.33-3.23.78-3.42,2.26a1.17,1.17,0,0,0,1.08,1.38,3.76,3.76,0,0,0,2.52-1.35l.3-2.43Z"></path><path class="b" d="M214.5,112.64h1.17l-1.44,11.67h-1.17l.12-.94a3.1,3.1,0,0,1-2.27,1.18c-1.12,0-2.89-1-2.5-4.21s2.2-4.55,3.63-4.55a2.66,2.66,0,0,1,1.93,1.1Zm-.69,5.51a1.9,1.9,0,0,0-1.77-1.34c-1.64,0-2.25,2.25-2.4,3.5-.3,2.43.75,3.22,1.56,3.22a3,3,0,0,0,2.14-1.54Z"></path><path class="b" d="M225.82,124.31h-1.71L222.73,116h1.14l1.25,7.2,2.95-7.2h1.11Z"></path><path class="b" d="M237.12,120.37c-.29,2.37.61,3.19,1.81,3.19a3,3,0,0,0,2.21-1.42l.76.55a3.63,3.63,0,0,1-3.21,1.86c-1.84,0-3.16-1.27-2.77-4.38s2-4.38,3.85-4.38c2.39,0,2.76,2.55,2.34,4.58Zm3.88-1c.17-1.07-.21-2.6-1.44-2.6s-2.13,1.43-2.29,2.6Z"></path><path class="b" d="M250.9,124.31h-1.17l1-8.28h1.17l-.1.86a4.09,4.09,0,0,1,2.41-1.1c1.17,0,2,.65,1.77,2.81l-.7,5.71h-1.17l.66-5.41c.1-.87.42-2.15-.83-2.15a4.05,4.05,0,0,0-2.28,1.26Z"></path><path class="b" d="M266.2,116h1.88l-.12,1h-1.88l-.64,5.21c-.11.81-.18,1.33.78,1.33a4.11,4.11,0,0,0,.94-.1l-.1.85a3.61,3.61,0,0,1-1.2.24c-2,0-1.71-1.33-1.53-2.85l.58-4.68h-1.26l.12-1H265l.33-2.68h1.17Z"></path><path class="b" d="M279.93,116h1.17l-1,8.28h-1.17l.1-.85a4.16,4.16,0,0,1-2.41,1.09c-1.17,0-2-.64-1.77-2.8l.7-5.72h1.17l-.67,5.42c-.11.87-.11,2.14.84,2.14a4,4,0,0,0,2.28-1.26Z"></path><path class="b" d="M290.31,117.82h0c.58-1,1.3-1.91,2.53-1.91h.45l-.13,1.07c-1.5-.21-2.51,1.44-3.11,2.64l-.57,4.69h-1.17l1-8.28h1.17Z"></path><path class="b" d="M301.48,120.37c-.28,2.37.62,3.19,1.82,3.19a3,3,0,0,0,2.2-1.42l.77.55a3.64,3.64,0,0,1-3.21,1.86c-1.85,0-3.17-1.27-2.78-4.38s2-4.38,3.86-4.38c2.38,0,2.76,2.55,2.34,4.58Zm3.89-1c.16-1.07-.21-2.6-1.44-2.6s-2.13,1.43-2.3,2.6Z"></path><path class="b" d="M316.77,116h1.87l-.12,1h-1.87l-.65,5.21c-.1.81-.18,1.33.78,1.33a4.19,4.19,0,0,0,1-.1l-.11.85a3.56,3.56,0,0,1-1.2.24c-2,0-1.71-1.33-1.53-2.85l.59-4.68h-1.26l.12-1h1.26l.33-2.68h1.17Z"></path><path class="b" d="M327.07,117.82h0c.59-1,1.31-1.91,2.54-1.91h.45L330,117c-1.5-.21-2.5,1.44-3.1,2.64l-.57,4.69h-1.17l1-8.28h1.17Z"></path><path class="b" d="M341.37,124.31v-1a4.13,4.13,0,0,1-2.56,1.29,2,2,0,0,1-2-2.37c.3-2.37,2.85-2.88,4.74-3.37l.39-.11.06-.46c.1-.95-.47-1.46-1.4-1.46a2.92,2.92,0,0,0-2.19,1.31l-.75-.62a4,4,0,0,1,3.06-1.68,2.25,2.25,0,0,1,2.43,2.58l-.51,4.11a5.11,5.11,0,0,0,0,1.83Zm0-4.51c-1.16.33-3.23.78-3.42,2.26a1.17,1.17,0,0,0,1.08,1.38,3.76,3.76,0,0,0,2.52-1.35l.3-2.43Z"></path><path class="b" d="M354,124.31H352.3L350.92,116h1.14l1.25,7.2,2.95-7.2h1.11Z"></path><path class="b" d="M365.31,120.37c-.29,2.37.61,3.19,1.81,3.19a3,3,0,0,0,2.21-1.42l.76.55a3.63,3.63,0,0,1-3.21,1.86c-1.84,0-3.16-1.27-2.77-4.38s2-4.38,3.85-4.38c2.39,0,2.76,2.55,2.34,4.58Zm3.88-1c.17-1.07-.21-2.6-1.44-2.6s-2.13,1.43-2.29,2.6Z"></path><path class="b" d="M379.12,124.31H378l1.44-11.67h1.17Z"></path><path class="b" d="M389.4,124.31h-1.52l.21-1.75h1.52Z"></path><path class="b" d="M399.34,124.31h-1.17l1.44-11.67h1.17l-.52,4.25a3.5,3.5,0,0,1,2.2-1.1c1.43,0,2.91,1.29,2.52,4.55s-2.43,4.21-3.55,4.21a2.29,2.29,0,0,1-2-1.18Zm.29-2.32a2.16,2.16,0,0,0,1.75,1.54c.81,0,2.07-.79,2.37-3.22.15-1.25.08-3.5-1.56-3.5a2.6,2.6,0,0,0-2.1,1.34Z"></path><path class="b" d="M413.73,124.31h-1.17l1-8.28h1.17ZM415,113.93h-1.17l.17-1.29h1.17Z"></path><path class="b" d="M428.28,116.77l-4.95,6.55h4.14l-.12,1h-5.57l.11-.85,4.89-6.44h-3.72l.12-1h5.19Z"></path></g></svg>
