<?xml version="1.0" encoding="UTF-8"?>
<svg id="Layer_1" data-name="Layer 1" xmlns="http://www.w3.org/2000/svg" viewBox="0 0 385.18 616.77">
  <defs>
    <style>
      .cls-1 {
        fill: #dce4e3;
        stroke-width: 0px;
      }
    </style>
  </defs>
  <path class="cls-1" d="M338.83,463.38c-.46.31-1.08.49-1.86.49-.62,0-1.16-.12-1.67-.37-.53-.25-1-.57-1.45-.97l-.87.93c.46.46,1.04.82,1.7,1.11.7.31,1.44.46,2.24.46.62,0,1.16-.09,1.64-.26.49-.15.9-.37,1.24-.65.34-.28.59-.62.77-1,.15-.39.25-.8.25-1.24v-.03c0-.42-.03-.77-.15-1.11-.11-.31-.31-.62-.56-.87-.28-.28-.62-.53-1.08-.74-.42-.23-.96-.46-1.61-.68-.59-.2-1.08-.39-1.44-.56-.36-.15-.62-.36-.83-.53-.22-.19-.36-.36-.42-.56-.08-.19-.11-.39-.11-.62s.05-.46.12-.65c.09-.2.22-.37.4-.53.19-.15.42-.26.71-.36.31-.09.65-.15,1.05-.15.59,0,1.08.11,1.55.28.42.19.83.43,1.27.77l.83-.97c-.49-.37-1.02-.66-1.55-.88-.57-.22-1.24-.31-2.01-.31-.56,0-1.08.05-1.52.19-.46.12-.83.31-1.16.57-.31.25-.56.54-.74.9-.2.36-.28.77-.28,1.24,0,.39.05.74.15,1.05.12.31.31.62.59.85.26.25.62.49,1.04.71.43.23.96.46,1.61.66.54.19.99.36,1.35.54.36.15.65.36.87.54.22.19.37.37.46.59.09.23.15.46.15.73,0,.62-.25,1.08-.7,1.42Z"/>
  <path class="cls-1" d="M344.15,455.98l.12.39.15.49c.08.15.15.31.2.51.09.15.15.34.22.46l3.09,7.27,3.14-7.27.2-.46.2-.51c.06-.15.12-.34.15-.49l.15-.39v8.84h1.22v-11.29h-1.42l-2.78,6.76c-.06.15-.15.34-.22.54l-.25.62-.22.57-.15.46-.15-.46-.22-.56-.23-.62-.23-.56-2.78-6.74h-1.44v11.29h1.24v-8.86Z"/>
  <path class="cls-1" d="M171.95,146.89l57.05,41.39c11.56,8.4,13.08,29.75,4.64,40.69l4.85,3.56,39.36-54.68c17.69-24.58,16.65-60.85-11.1-80.77l-61.04-43.8c-8.55-6.12-12.83-16.54-5.72-26.48l-5.26-3.66.02.02-34.71,47.42c-16.28,22.23-10.36,60.22,11.9,76.33Z"/>
  <path class="cls-1" d="M144.25,240.57l41.34,29.5c7.08,5.06,7.65,10.05,4.28,15.41l6.03,4.41,20.92-28.63c12.92-17.69,11.8-41.77-7.37-55.57l-41.68-29.99c-4.99-3.59-5.52-8.61-2.75-14.22l-6-4.25-.02.02-22.32,30.3c-11.16,15.21-7.7,42.16,7.58,53.03Z"/>
  <path class="cls-1" d="M246.56,465.13h47.12c20.13,0,41.43-8.69,38.03-31.57h-.02c-1.95-13.1-7.3-16.23-17.98-20.87,8.07-4.68,13.05-11.56,13.05-20.96,0-18.83-15.62-26.5-32.62-26.5h-47.59v99.91ZM295.64,446.25l-.02-.02h-27.54v-22.77h27.55c20.25,0,19.05,22.79,0,22.79ZM268.07,384.3h24.71c15.46,0,16,21.34.97,21.34h-25.68v-21.34Z"/>
  <polygon class="cls-1" points="157.48 348.05 232.67 348.05 240.86 320.53 286.84 320.53 280.81 300.27 109.31 300.27 103.28 320.53 149.29 320.53 157.48 348.05"/>
  <path class="cls-1" d="M142.82,433.56c-1.96-13.1-7.3-16.23-18-20.87,8.09-4.68,13.05-11.56,13.05-20.96,0-18.83-15.62-26.5-32.62-26.5h-47.59v99.91h47.15c20.1,0,41.43-8.69,38-31.57ZM79.19,384.3h24.74c15.43,0,15.99,21.34.96,21.34h-25.7v-21.34ZM79.2,423.46h27.57c20.25,0,19.02,22.79,0,22.79l-.05-.02h-27.52v-22.77Z"/>
  <path class="cls-1" d="M10.1,580.54c0,14.44,11.97,26.28,26.62,26.28h311.78c14.64,0,26.64-11.84,26.64-26.31v-84.72H10.1v84.75ZM183.62,586.05h-7v-33.7h7v33.7ZM219.29,586.05l-.03-.02h-6.26l-12.86-18.4c-.43-.65-.9-1.31-1.36-2.04-.51-.73-.87-1.31-1.08-1.78l.05,1.42v2.06l.03,2.12c.03.68.03,1.3.03,1.76v14.84h-6.9v-33.7h6.71l12.4,17.83c.46.66.93,1.33,1.39,2.06s.83,1.3,1.08,1.73l-.03-1.39c-.02-.62-.05-1.3-.05-2.01v-2.16c-.03-.71-.03-1.3-.03-1.76v-14.25h6.91v33.7ZM318.33,508.79h11.26c2.57,0,4.95.31,7.11.93,2.18.59,4.05,1.56,5.63,2.91,1.59,1.36,2.83,3.09,3.76,5.23.89,2.11,1.36,4.73,1.36,7.81,0,0,0-.01,0-.02v.05s0-.02,0-.02c0,2.96-.53,5.49-1.55,7.62-1.08,2.13-2.47,3.87-4.17,5.26-1.73,1.36-3.71,2.37-5.91,3.01-2.21.66-4.44.97-6.76.97h-10.73v-33.73ZM287.15,508.82h24.98v6.6h-17.78v5.83h14.93v6.54h-14.92v8.15h18.55v6.6l-.03.02h-25.74v-33.73ZM303.88,574.91c-.2-.4-.57-.77-1.13-1.13-.54-.36-1.35-.7-2.35-1-1.05-.32-2.4-.66-4.02-1.02-1.61-.36-3.09-.77-4.44-1.24-1.36-.49-2.5-1.08-3.48-1.86-.97-.73-1.72-1.65-2.26-2.78-.53-1.13-.8-2.52-.8-4.17,0-1.55.32-2.94.99-4.17.66-1.21,1.53-2.24,2.67-3.09,1.13-.87,2.46-1.48,3.97-1.95,1.52-.45,3.15-.66,4.89-.66,2.72,0,5.13.46,7.2,1.39,2.04.93,3.9,2.23,5.57,3.9l-5.04,4.72c-1.16-1.11-2.35-1.98-3.63-2.57-1.28-.59-2.74-.9-4.33-.9-.94,0-1.72.11-2.38.26-.62.19-1.13.42-1.55.7-.39.29-.7.62-.85.99-.17.34-.25.7-.25,1.08,0,.56.11,1,.31,1.36.22.37.59.68,1.11.99.54.29,1.27.56,2.16.82.9.25,2.07.56,3.46.87,1.39.32,2.78.7,4.17,1.13,1.38.42,2.63,1.04,3.76,1.81,1.11.77,2.03,1.75,2.72,2.94.71,1.19,1.05,2.71,1.05,4.53v.02c0,1.59-.26,3.06-.8,4.38-.53,1.33-1.36,2.47-2.5,3.4-1.13.96-2.57,1.69-4.27,2.2s-3.79.77-6.18.77c-2.94,0-5.61-.54-8.01-1.62-2.41-1.11-4.28-2.6-5.61-4.48l5.06-4.33c1.24,1.36,2.61,2.35,4.13,2.94s3.14.9,4.84.9c2.1,0,3.65-.29,4.64-.88.99-.57,1.48-1.5,1.48-2.78,0-.54-.11-1.02-.31-1.42ZM254.7,508.84h27.86v6.65h-10.31v27.06h-7.22v-27.06h-10.33v-6.65ZM258.93,576.17c1.24,1.36,2.6,2.35,4.14,2.94,1.52.59,3.12.9,4.82.9,2.1,0,3.65-.29,4.64-.88.97-.57,1.48-1.5,1.48-2.78,0-.54-.11-1.02-.31-1.42s-.59-.77-1.13-1.13c-.56-.36-1.35-.7-2.37-1-1.05-.32-2.38-.66-4.02-1.02-1.61-.36-3.08-.77-4.44-1.24-1.35-.49-2.5-1.08-3.48-1.86-.96-.73-1.72-1.65-2.24-2.78-.54-1.13-.8-2.52-.8-4.17,0-1.55.32-2.94.97-4.17.65-1.21,1.55-2.24,2.69-3.09,1.14-.87,2.44-1.48,3.99-1.95,1.52-.45,3.14-.66,4.87-.66,2.72,0,5.13.46,7.2,1.39,2.04.93,3.9,2.23,5.57,3.9l-5.07,4.72c-1.13-1.11-2.35-1.98-3.63-2.57-1.28-.59-2.72-.9-4.33-.9-.93,0-1.73.11-2.35.26-.62.19-1.16.42-1.55.7-.4.29-.68.62-.83.99-.17.34-.25.7-.25,1.08,0,.56.09,1,.31,1.36.22.37.6.68,1.11.99.56.29,1.27.56,2.16.82.91.25,2.06.56,3.48.87,1.39.32,2.78.7,4.17,1.13,1.39.42,2.64,1.04,3.76,1.81,1.11.77,2.03,1.75,2.75,2.94.7,1.19,1.05,2.71,1.05,4.53l-.05.02c0,1.59-.28,3.06-.8,4.38-.54,1.33-1.38,2.47-2.5,3.4-1.13.96-2.58,1.69-4.28,2.2-1.7.51-3.77.77-6.18.77-2.94,0-5.61-.54-8.01-1.62-2.4-1.11-4.27-2.6-5.61-4.48l5.06-4.33ZM249.08,564.79v6.56h-14.93v8.13h18.55v6.6h-25.74v-33.7h25v6.6h-17.78v5.81h14.9ZM241.83,508.84h7.19v33.7h-7.19v-33.7ZM205.73,508.79h11.26c2.57,0,4.95.31,7.11.93,2.18.59,4.07,1.56,5.66,2.91,1.59,1.36,2.83,3.09,3.76,5.23.88,2.12,1.35,4.75,1.35,7.84l-.02-.05c0,2.97-.51,5.5-1.55,7.64-1.05,2.13-2.44,3.87-4.17,5.26-1.73,1.36-3.7,2.37-5.91,3.01-2.21.66-4.45.97-6.77.97h-10.71v-33.73ZM174.6,508.82h24.98v6.6h-17.78v5.83h14.93v6.54h-14.95v8.15h18.55v6.62h-25.74v-33.73ZM152.47,562.76c.22.37.59.68,1.11.99.54.29,1.27.56,2.16.82.9.25,2.07.56,3.46.87,1.39.32,2.78.7,4.17,1.13,1.38.42,2.63,1.04,3.76,1.81,1.11.77,2.03,1.75,2.74,2.94.7,1.19,1.05,2.71,1.05,4.53v.02c0,1.59-.26,3.06-.8,4.38-.53,1.33-1.36,2.47-2.5,3.4-1.13.96-2.55,1.69-4.25,2.2-1.75.51-3.8.77-6.18.77-2.94,0-5.63-.54-8.04-1.62-2.4-1.11-4.27-2.6-5.6-4.48l5.06-4.33c1.24,1.36,2.61,2.35,4.13,2.94s3.12.9,4.82.9c2.12,0,3.65-.29,4.64-.88.99-.57,1.48-1.5,1.48-2.78,0-.54-.11-1.02-.31-1.42s-.57-.77-1.13-1.13c-.54-.36-1.35-.7-2.37-1-1.04-.32-2.38-.66-4.02-1.02-1.59-.36-3.08-.77-4.42-1.24-1.36-.49-2.52-1.08-3.49-1.86-.97-.73-1.72-1.65-2.26-2.78-.54-1.13-.8-2.52-.8-4.17,0-1.55.32-2.94.97-4.17.68-1.21,1.55-2.24,2.69-3.09,1.13-.87,2.46-1.48,3.97-1.95,1.52-.45,3.14-.66,4.89-.66,2.74,0,5.13.46,7.17,1.39,2.06.93,3.91,2.23,5.61,3.9l-5.1,4.72c-1.14-1.11-2.33-1.98-3.62-2.57-1.28-.59-2.74-.9-4.33-.9-.94,0-1.75.11-2.37.26-.62.19-1.14.42-1.55.7-.4.29-.68.62-.83.99-.17.34-.23.7-.23,1.08,0,.56.09,1,.31,1.36ZM140.74,508.82h16.74c1.7,0,3.28.2,4.79.62,1.5.46,2.81,1.11,3.94,2.01,1.11.9,2.01,2.03,2.66,3.37.65,1.33.99,2.89.99,4.7,0,2.52-.59,4.61-1.73,6.23-1.14,1.64-3.68,3.14-6,3.96l7.97,12.82h.03l-.02.02v-.02h-8.26l-7.51-11.86-6.42-.28v12.14h-7.19v-33.7ZM138.77,571.2c0,4.9-1.25,8.7-3.77,11.39-2.5,2.67-5.98,4.02-10.47,4.02-2.1,0-4.04-.34-5.78-1.04-1.75-.65-3.25-1.64-4.48-2.94-1.24-1.31-2.2-2.91-2.88-4.79-.68-1.9-1.04-4.1-1.04-6.57v-18.92h7v18.83c0,2.74.63,4.87,1.92,6.45,1.24,1.59,3,2.37,5.26,2.37s3.97-.77,5.26-2.32c1.31-1.53,1.93-3.68,1.93-6.42v-18.92h7v18.83l.05.03ZM107.08,518.61c.77-2.13,1.87-3.94,3.29-5.49,1.41-1.55,3.09-2.72,5.02-3.56,1.96-.85,4.13-1.27,6.49-1.27,1.67,0,3.18.19,4.58.56,3.14.83,6.49,3.06,8.61,5.47v.02l-4.99,4.75c-1.78-2.32-5.6-4.08-8.3-4.08-1.33,0-2.52.26-3.6.77-1.05.54-1.95,1.27-2.66,2.2-.73.97-1.27,2.1-1.65,3.4-.39,1.3-.54,2.74-.54,4.28s.15,2.94.56,4.25c.39,1.3.94,2.43,1.67,3.4.74.96,1.62,1.72,2.71,2.26,1.07.54,2.26.82,3.59.82,2.72,0,7.27-2.04,8.72-4.33l5.13,4.48c-2.16,4.19-9.71,6.56-14.07,6.56-2.37,0-4.5-.42-6.42-1.24-1.92-.82-3.59-1.99-4.98-3.51-1.39-1.52-2.44-3.34-3.22-5.47-.74-2.12-1.13-4.53-1.13-7.22s.42-4.92,1.19-7.05ZM104.28,570.54c.93,1.24,1.39,2.78,1.39,4.64s-.31,3.32-.9,4.72c-.6,1.35-1.45,2.47-2.54,3.4-1.08.91-2.4,1.61-3.94,2.07-1.52.46-3.25.7-5.1.7h-15.92v-33.7h16.08c3.4,0,6.11.74,8.12,2.29,1.99,1.5,3,3.73,3,6.6,0,1.47-.32,2.75-.97,3.87-.65,1.13-1.56,2.03-2.72,2.71,1.39.6,2.58,1.52,3.51,2.72ZM73.9,518.61c.8-2.13,1.89-3.94,3.28-5.49,1.41-1.55,3.08-2.72,5.04-3.56,1.95-.85,4.11-1.27,6.46-1.27,1.69,0,3.22.19,4.56.56,3.15.83,6.49,3.06,8.61,5.47l-.02.05-4.98,4.75c-1.79-2.32-5.61-4.08-8.29-4.08-1.35,0-2.52.26-3.6.77-1.07.54-1.95,1.27-2.67,2.2-.71.97-1.27,2.1-1.64,3.4-.37,1.3-.57,2.74-.57,4.28s.2,2.92.57,4.22c.37,1.3.93,2.43,1.67,3.4.74.96,1.62,1.72,2.71,2.26,1.07.54,2.27.82,3.6.82,2.71,0,7.27-2.04,8.74-4.33l5.1,4.48c-2.15,4.19-9.69,6.56-14.02,6.56-2.37,0-4.51-.42-6.43-1.24-1.92-.82-3.56-1.99-4.95-3.51-1.39-1.52-2.44-3.34-3.22-5.47-.76-2.12-1.13-4.53-1.13-7.22s.4-4.92,1.18-7.05ZM50.83,508.84h6.99l13.67,33.7h-7.92l-2.84-7.51h-13.14l-2.83,7.51h-7.68l13.76-33.7Z"/>
  <path class="cls-1" d="M58.29,528.59l-2.32-6.12c-.37-.99-.74-1.95-1.05-2.88-.32-.93-.57-1.72-.73-2.37-.19.65-.46,1.45-.77,2.38-.32.93-.66,1.9-1.04,2.89l-2.32,6.12h8.22v-.03Z"/>
  <path class="cls-1" d="M93.44,570.93h-9.32v8.72h9.32c1.7,0,2.95-.4,3.79-1.18.8-.79,1.24-1.86,1.24-3.2l-.02-.02c0-2.89-1.67-4.33-5.01-4.33Z"/>
  <path class="cls-1" d="M348.48,0H36.7C16.51,0,0,16.3,0,36.22v544.32c0,19.91,16.51,36.22,36.72,36.22h311.78c20.18,0,36.69-16.31,36.69-36.22V36.24c0-19.93-16.51-36.24-36.7-36.24ZM382.68,580.54c0,18.55-15.38,33.73-34.17,33.73H36.69c-18.8,0-34.17-15.18-34.17-33.75V36.22C2.52,17.67,17.89,2.47,36.69,2.47h311.79c18.82,0,34.2,15.2,34.2,33.77v544.3Z"/>
  <path class="cls-1" d="M337.36,533.14c.9-.9,1.58-1.98,2.01-3.25.45-1.27.68-2.66.68-4.21l-.02-.02c0-3.4-.83-5.98-2.54-7.73-1.67-1.72-4.41-2.57-8.19-2.57h-3.82v20.61h3.56c1.89,0,3.52-.25,4.92-.74,1.39-.49,2.52-1.21,3.4-2.1Z"/>
  <path class="cls-1" d="M221.36,535.24c1.39-.49,2.54-1.21,3.43-2.1.88-.9,1.55-1.98,2.01-3.25.45-1.27.66-2.66.66-4.21l-.02-.02c0-3.4-.83-5.98-2.5-7.73-1.69-1.72-4.42-2.57-8.22-2.57h-3.82v20.61h3.56c1.89,0,3.51-.25,4.9-.74Z"/>
  <path class="cls-1" d="M232.33,391.72c0-18.83-15.62-26.5-32.62-26.5h-47.6v99.91h47.11c20.13,0,41.43-8.69,38.03-31.57h.05c-1.98-13.1-7.33-16.23-18.01-20.87,8.09-4.68,13.05-11.56,13.05-20.96ZM173.65,384.3h24.69c15.43,0,15.99,21.34.96,21.34h-25.65v-21.34ZM201.2,446.25l-.02-.02h-27.57v-22.77h27.58c20.25,0,19.02,22.79,0,22.79Z"/>
  <path class="cls-1" d="M162.46,519.66v-.02c0-1.55-.43-2.66-1.36-3.28-.91-.66-2.16-.97-3.79-.97h-9.4v8.66h9.4c3.45,0,5.15-1.45,5.15-4.39Z"/>
  <path class="cls-1" d="M96.49,564.08c.59-.59.87-1.36.87-2.29v-.02c0-1.05-.32-1.86-.99-2.4-.66-.56-1.78-.8-3.29-.8h-8.92v6.4h9.28c1.47,0,2.49-.28,3.06-.9Z"/>
</svg>