<?xml version="1.0" encoding="UTF-8"?>
<svg id="Layer_2" data-name="Layer 2" xmlns="http://www.w3.org/2000/svg" viewBox="0 0 70 70">
  <defs>
    <style>
      .cls-1 {
        fill: #fff;
      }
    </style>
  </defs>
  <g id="Layer_1-2" data-name="Layer 1">
    <g>
      <path class="cls-1" d="M35,70C15.7,70,0,54.3,0,35S15.7,0,35,0s35,15.7,35,35-15.7,35-35,35ZM35,1.71C16.64,1.71,1.71,16.64,1.71,35s14.93,33.29,33.29,33.29,33.29-14.93,33.29-33.29S53.36,1.71,35,1.71Z"/>
      <path class="cls-1" d="M51.47,18.81c0-.09-.01-.19-.04-.27,0-.01-.01-.03-.02-.04-.03-.08-.08-.15-.13-.21,0-.01-.01-.03-.02-.04,0,0-.02-.01-.03-.02-.01-.01-.02-.03-.04-.05-.02-.02-.04-.02-.06-.03-.09-.06-.18-.11-.28-.13-.03,0-.06-.02-.1-.02-.13-.01-.27,0-.39.05,0,0-.01,0-.01,0l-35.84,14.86c-.29.12-.49.4-.51.72-.02.32.15.62.43.77l12.13,6.53v10.27c0,.36.23.67.57.78.08.03.17.04.25.04.26,0,.51-.12.67-.34l5.11-6.65c.1-.14.14-.31.14-.47l9.76,5.26c.12.07.26.1.39.1.11,0,.23-.02.34-.07.23-.1.4-.31.46-.56l7.2-30.27s0-.08.01-.11c0-.02,0-.05,0-.07ZM46.73,21.32l-19.49,18.1-10.52-5.66,30.01-12.44ZM31.81,44.05l-3.62,4.58v-6.83l3.82,2.06c-.08.05-.15.11-.21.19ZM42.89,47.85l-14.11-7.6,20.44-18.99-6.33,26.59Z"/>
    </g>
  </g>
</svg>