<svg xmlns="http://www.w3.org/2000/svg" viewBox="0 0 109 70">
  <path fill="#dce4e3" d="M27.2220627,69.9888268 C28.1607546,68.0111732 29.1553209,66.0558659 30.1275374,64.0893855 L38.0281936,48.0446927 C38.1014139,47.8662449 38.2832548,47.7571571 38.4751897,47.7765363 L45.0013328,47.7765363 C45.2471806,47.7765363 45.325405,47.8435754 45.3701046,48.0782123 L48.879024,65.4636872 L49.7394915,69.7541899 C49.7506473,69.8320046 49.7506473,69.9110122 49.7394915,69.9888268 L43.1127742,69.9888268 C42.9898503,69.1731844 42.8557515,68.3687151 42.7440025,67.5530726 C42.7440025,67.3743017 42.6434283,67.3184358 42.4646299,67.3184358 L35.7596883,67.3184358 C35.6194242,67.2962151 35.4848052,67.3827426 35.4467911,67.5195531 L34.5974985,69.4972067 C34.5332456,69.6581037 34.4772975,69.8221931 34.4298749,69.9888268 L27.2220627,69.9888268 Z M41.995284,62.6703911 L40.8219192,54.5921788 L40.7548698,54.5921788 L37.3353496,62.6703911 L41.995284,62.6703911 Z M70.6924339,69.9888268 C71.2176543,68.8715084 71.8099241,67.8547486 72.27927,66.7821229 L81.4873898,48.122905 C81.5541563,47.9250777 81.7490162,47.7998299 81.9567357,47.8212291 L88.4270043,47.8212291 C88.6616773,47.8212291 88.7622514,47.8212291 88.8181259,48.1340782 L93.1204634,69.3631285 C93.1424106,69.5704589 93.1797635,69.7758681 93.2322124,69.9776536 L86.5272709,69.9776536 C86.4378716,69.1620112 86.3261226,68.3575419 86.2255485,67.5418994 C86.2255485,67.3743017 86.1584991,67.3072626 85.9908755,67.3072626 L79.285934,67.3072626 C79.1684749,67.3155085 79.0632472,67.3828439 79.0065614,67.4860335 C78.6377896,68.301676 78.2913676,69.1396648 77.8890712,69.9664804 L70.6924339,69.9888268 Z M80.7498462,62.7039106 L85.4097806,62.7039106 L84.2922903,54.6480447 L84.2252409,54.6480447 C83.1077507,57.273743 81.9902604,59.9553073 80.8057207,62.6592179 L80.7498462,62.7039106 Z M56.4891327,69.9888268 C56.8243797,67.6871508 57.1670768,65.3929236 57.5172237,63.1061453 L58.4559155,56.6927374 L58.9252614,53.5977654 L58.9252614,53.273743 L52.6784909,53.273743 L52.6784909,52.9832402 C53.0025631,51.3184358 53.3266352,49.6312849 53.6060078,47.9776536 C53.6060078,47.7653631 53.7289317,47.6871508 53.9636047,47.6871508 L73.1509124,47.6871508 L72.0334222,53.273743 L66.0548493,53.273743 L65.8201763,54.7932961 L65.0155834,60.2681564 L64.2333402,65.6871508 L63.5851958,70 L56.4891327,69.9888268 Z M15.5442895,69.9888268 C15.7007382,69.150838 15.8460119,68.3240223 16.0136354,67.4972067 L18.248616,56.4692737 C18.8073611,53.6424581 19.3661062,50.8156425 19.9472011,48.0111732 C19.9472011,47.8659218 20.0142506,47.7877095 20.1818741,47.7877095 L27.188538,47.7877095 L26.8979906,49.3072626 L24.5624359,60.9944134 L22.7744515,69.9329609 L15.5442895,69.9888268 Z M56.3773836,0 L57.8189461,0.290502793 C60.5436198,0.833634596 63.1013857,2.01278244 65.283781,3.73184358 L65.4849293,3.88826816 L65.4849293,3.95530726 C64.2587132,5.02690902 62.8708008,5.89799176 61.3725651,6.53631285 C60.0563369,4.08176026 58.3290114,1.87097245 56.2656346,0 L56.3773836,0 Z M52.7231905,2.66453526e-15 C51.0780953,1.50753194 49.6423901,3.22861016 48.4543777,5.11731844 C48.1638302,5.57541899 47.9068075,6.04469274 47.6274349,6.53631285 C46.1054458,5.88837084 44.700875,4.99366094 43.4703711,3.88826816 C44.2079147,3.38547486 44.8895838,2.88268156 45.6159524,2.44692737 C47.6736404,1.22044773 49.9513729,0.408181396 52.320894,0.0558659218 L52.4773426,0.0558659218 L52.7231905,2.66453526e-15 Z M103.636047,28.122905 C102.890527,29.6564709 101.728849,30.9496073 100.283576,31.8547486 C99.7358697,32.1661889 99.1143952,32.3244282 98.4844166,32.3128492 L77.2521017,32.3128492 C76.9755789,32.317237 76.703898,32.3861033 76.4586836,32.5139665 C76.3427915,32.5610066 76.2504722,32.6523521 76.2022165,32.7677285 C76.1539608,32.8831049 76.1537607,33.0129672 76.2016609,33.1284916 C76.2503766,33.2444968 76.3426606,33.3367666 76.4586836,33.3854749 C76.7018749,33.5081311 76.9687245,33.576739 77.2409268,33.5865922 L98.4732417,33.5865922 C98.216219,33.9664804 98.0038958,34.3128492 97.7692229,34.6368715 C97.1250356,35.5183279 96.3261056,36.275491 95.4113184,36.8715084 C94.5143212,37.4560964 93.4647825,37.7631365 92.3940947,37.7541899 L74.4472011,37.7541899 C74.1880444,37.7544948 73.9309151,37.7998635 73.6873078,37.8882682 C73.5700803,37.9120471 73.4677805,37.9829551 73.4043844,38.0843732 C73.3409882,38.1857914 73.322069,38.3088043 73.3520607,38.424581 C73.3792895,38.565621 73.4759957,38.6833323 73.6090835,38.7374302 C73.8736378,38.8944581 74.1732856,38.9828022 74.4807259,38.9944134 L93.0422391,38.9944134 C92.8648801,39.3194795 92.6670589,39.6329591 92.4499692,39.9329609 C91.5549941,41.3654984 90.1810471,42.4343994 88.572278,42.9497207 C88.0391519,43.1067975 87.4852866,43.1821417 86.9295674,43.1731844 L68.7480008,43.1731844 C65.3145918,43.0527795 62.2628758,40.9517782 60.925569,37.7877095 C60.9023064,37.6840166 60.8686101,37.5829432 60.8249949,37.4860335 L61.4507894,37.2178771 C64.2376881,36.0882326 66.8315663,34.531391 69.1391224,32.603352 C72.0983869,30.0793454 74.1443882,26.6515441 74.9612467,22.849162 C74.9732071,22.7719445 74.9957698,22.696747 75.0282961,22.6256983 L109,22.6256983 L109,22.6927374 C108.235088,24.089411 107.16569,25.296117 105.871027,26.2234637 C105.279119,26.6177673 104.58192,26.8241691 103.87072,26.8156425 L80.1687513,26.8156425 C79.9080186,26.8199056 79.6488986,26.8574535 79.397683,26.9273743 C79.1719044,26.9731925 79.0061418,27.1665525 78.9953865,27.396648 C78.975062,27.6237455 79.1005683,27.8388662 79.3082838,27.9329609 C79.5505201,28.0457708 79.8124266,28.1102886 80.0793521,28.122905 L103.636047,28.122905 L103.636047,28.122905 Z M10.6049826,33.6424581 L31.8372975,33.6424581 C32.0841068,33.6319958 32.3267358,33.5751383 32.5524913,33.4748603 C32.7583223,33.4112147 32.8987384,33.2210027 32.8989133,33.0055866 C32.9013844,32.7842192 32.7618086,32.5861422 32.5524913,32.5139665 C32.3277192,32.4261015 32.0896708,32.3769879 31.8484724,32.3687151 L10.8843551,32.3687151 C9.79066357,32.384619 8.72909946,31.9990164 7.90065614,31.2849162 C6.87482602,30.4016853 6.0352674,29.3229614 5.43100267,28.1117318 L28.9876974,28.1117318 C29.258213,28.0991446 29.5237834,28.0346589 29.7699405,27.9217877 C29.9914909,27.841058 30.1296943,27.6199665 30.1051876,27.3854749 C30.0842069,27.1456854 29.9060121,26.9492443 29.6693664,26.9050279 C29.4254434,26.8380384 29.1736051,26.8042146 28.9206479,26.8044693 L5.5986262,26.8044693 C4.42289868,26.8293928 3.28260133,26.401347 2.41377896,25.6089385 C1.47074628,24.7560287 0.657547186,23.7698 0,22.6815642 L34.0052286,22.6815642 C34.1840271,23.3407821 34.3404757,24.0111732 34.5527989,24.6592179 C35.489892,27.5143041 37.1399234,30.0831887 39.3468321,32.122905 C41.8000638,34.3603534 44.6249873,36.1525995 47.6944843,37.4189944 L48.2085298,37.6424581 C48.1456438,37.8294801 48.0709956,38.0123402 47.9850318,38.1899441 C46.7359592,40.9627336 44.1395141,42.8907416 41.1236416,43.2849162 C40.7887667,43.3072543 40.4527752,43.3072543 40.1179003,43.2849162 L22.5286036,43.2849162 C20.4232482,43.3492538 18.416682,42.391911 17.1423006,40.7150838 C16.7176543,40.2122905 16.3824072,39.6536313 16.0248103,39.1284916 L16.0806848,39.027933 L34.530449,39.027933 C34.8644924,39.0628279 35.199471,38.9711217 35.4691409,38.7709497 C35.8379127,38.4804469 35.8043879,38.0670391 35.3685667,37.8994413 C35.1269019,37.8198051 34.8742938,37.7783385 34.6198483,37.7765363 L17.0082018,37.7765363 C15.2349073,37.7946233 13.537203,37.059606 12.3370925,35.7541899 C11.6695064,35.1293599 11.0871292,34.4193446 10.6049826,33.6424581 L10.6049826,33.6424581 Z M47.0798647,26.2905028 C45.4491193,27.0000033 43.9227277,27.928478 42.5428542,29.0502793 C39.4791542,25.9717888 37.6638932,21.8681782 37.4470986,17.5307263 L45.0125077,17.5307263 C45.1658123,20.5516734 45.8662856,23.5197095 47.0798647,26.2905028 L47.0798647,26.2905028 Z M42.5093295,4.83798883 C43.2468731,5.36312849 43.9620668,5.95530726 44.74431,6.37988827 C45.5265532,6.80446927 46.2752717,7.25139665 47.0798647,7.69832402 C45.8929808,10.4175668 45.2041052,13.3278077 45.0460324,16.2905028 L37.4582735,16.2905028 C37.5531904,14.3760539 37.9569687,12.4895294 38.6539881,10.7039106 C39.5229086,8.50480791 40.8352524,6.50806996 42.5093295,4.83798883 L42.5093295,4.83798883 Z M66.4906705,29.1284916 C65.1254948,28.0112014 63.6233928,27.072532 62.0207095,26.3351955 C63.250539,23.5926646 63.9301487,20.6354882 64.021017,17.6312849 L71.5640763,17.6312849 C71.3636879,21.961606 69.5545719,26.0613727 66.4906705,29.1284916 L66.4906705,29.1284916 Z M71.5752512,16.2905028 L64.0433668,16.2905028 C63.9321522,13.3093288 63.2492883,10.3772587 62.0318844,7.65363128 C63.6441424,6.90623968 65.1477836,5.94405725 66.5018454,4.79329609 C69.59344,7.84138814 71.4075871,11.9525562 71.5752512,16.2905028 L71.5752512,16.2905028 Z M53.8965553,9.22905028 L53.8965553,16.2793296 L46.353496,16.2793296 C46.4237887,13.4523188 47.0582763,10.6678402 48.2197047,8.08938547 C50.0426306,8.75706385 51.9571461,9.14141534 53.8965553,9.22905028 L53.8965553,9.22905028 Z M46.353496,17.5865922 L53.8853804,17.5865922 L53.8853804,24.6703911 C51.9544507,24.7511861 50.0473854,25.1280185 48.2308796,25.7877095 C47.0448163,23.2131507 46.4055655,20.4206627 46.353496,17.5865922 L46.353496,17.5865922 Z M55.2040189,9.22905028 C57.1117613,9.13690493 58.9950312,8.76030885 60.7914702,8.11173184 C62.0197424,10.66334 62.6575884,13.4587378 62.6576789,16.2905028 L55.2040189,16.2905028 L55.2040189,9.22905028 Z M60.81382,25.7765363 C59.0189484,25.1223562 57.1348197,24.7455884 55.2263687,24.6592179 L55.2263687,17.5977654 L62.6912036,17.5977654 C62.6539658,20.4264554 62.0139431,23.214697 60.81382,25.7765363 L60.81382,25.7765363 Z M56.3997334,33.8212291 C58.4172045,31.9771849 60.1129749,29.8096513 61.4172647,27.4078212 C62.9181393,28.0379292 64.3098566,28.9014909 65.5408038,29.9664804 C62.9146917,32.0815208 59.7475474,33.4170914 56.3997334,33.8212291 Z M43.4927209,29.9664804 C44.734497,28.9219305 46.1193054,28.0603208 47.6050851,27.4078212 C48.8923564,29.8086099 50.5732903,31.9764925 52.5779168,33.8212291 C49.2495092,33.4075822 46.1028559,32.0724919 43.4927209,29.9664804 L43.4927209,29.9664804 Z M53.8965553,7.95530726 C52.1775534,7.92102562 50.4784424,7.58049895 48.879024,6.94972067 C50.1219344,4.57249091 51.8279173,2.46788244 53.8965553,0.759776536 L53.8965553,7.95530726 Z M53.8965553,33.1396648 C51.8052216,31.4318435 50.0958344,29.3040027 48.879024,26.8938547 C50.4994796,26.3048485 52.2061715,25.9877245 53.93008,25.9553073 L53.8965553,33.1396648 Z M55.192844,7.96648045 L55.192844,0.748603352 C57.2712575,2.46188547 58.975299,4.58400368 60.1992003,6.98324022 C58.6003929,7.59990544 56.9061546,7.93265107 55.192844,7.96648045 L55.192844,7.96648045 Z M55.2040189,33.1955307 L55.2040189,26 C56.9062364,26.056315 58.5902291,26.3689547 60.1992003,26.9273743 C58.9573971,29.3214929 57.2606889,31.4505912 55.2040189,33.1955307 L55.2040189,33.1955307 Z"></path>
</svg>
