<svg xmlns="http://www.w3.org/2000/svg" xmlns:xlink="http://www.w3.org/1999/xlink" fill="#ffffff" height="800px" width="800px" version="1.1" id="Layer_1" viewBox="0 0 40 40" xml:space="preserve">
<g id="XMLID_826_">
		<circle cx="25.5" cy="14.7" r="1.3" fill="#ffffff"/>
		<path d="M29.946 13.117a5.366 5.366 0 0 0-3.07-3.064 7.72 7.72 0 0 0-2.55-.49C23.204 9.515 22.85 9.5 20 9.5c-2.849 0-3.211 0-4.326.064a7.72 7.72 0 0 0-2.55.49 5.366 5.366 0 0 0-3.07 3.063 7.684 7.684 0 0 0-.49 2.546c-.05 1.12-.064 1.475-.064 4.32 0 2.843 0 3.205.064 4.318.018.87.184 1.732.49 2.547a5.366 5.366 0 0 0 3.07 3.063 7.72 7.72 0 0 0 2.55.525c1.122.05 1.477.064 4.326.064 2.849 0 3.211 0 4.326-.064a7.72 7.72 0 0 0 2.55-.49 5.366 5.366 0 0 0 3.07-3.063 7.684 7.684 0 0 0 .49-2.546c.05-1.12.064-1.475.064-4.32 0-2.843 0-3.205-.064-4.318a7.684 7.684 0 0 0-.49-2.582zm-1.509 11.065a5.711 5.711 0 0 1-.357 1.935 3.425 3.425 0 0 1-1.965 1.964 5.724 5.724 0 0 1-1.916.356c-1.09.049-1.398.063-4.196.063-2.797 0-3.083 0-4.195-.063a5.724 5.724 0 0 1-1.916-.356 3.418 3.418 0 0 1-1.972-1.964 5.711 5.711 0 0 1-.357-1.914c-.049-1.09-.063-1.398-.063-4.193 0-2.794 0-3.08.063-4.192a5.71 5.71 0 0 1 .357-1.935 3.418 3.418 0 0 1 1.972-1.964 5.724 5.724 0 0 1 1.916-.356c1.09-.049 1.398-.063 4.195-.063 2.798 0 3.084 0 4.196.063a5.724 5.724 0 0 1 1.916.356 3.425 3.425 0 0 1 1.965 1.964c.228.613.349 1.26.357 1.914.049 1.09.063 1.398.063 4.193 0 2.794 0 3.095-.049 4.192h-.014z" fill="#ffffff"/>
		<path d="M20 25a5 5 0 1 1 0-10 5 5 0 0 1 0 10zm0-2a3 3 0 1 0 0-6 3 3 0 0 0 0 6z" fill="#ffffff"/>
</g>
</svg>