<svg xmlns="http://www.w3.org/2000/svg" xmlns:xlink="http://www.w3.org/1999/xlink" fill="#ffffff" height="800px" width="800px" version="1.1" id="Layer_1" viewBox="0 0 40 40" xml:space="preserve">
<g id="XMLID_826_">
     <path d="M10.98 15.592h3.703V28.5h-3.704V15.592zm1.756-1.614h-.026c-1.34 0-2.21-.987-2.21-2.236 0-1.275.895-2.242 2.262-2.242 1.366 0 2.206.965 2.233 2.238 0 1.25-.867 2.24-2.259 2.24zM29.5 28.5h-4.2v-6.68c0-1.748-.656-2.94-2.1-2.94-1.105 0-1.72.804-2.006 1.581-.107.277-.09.666-.09 1.055V28.5h-4.16s.053-11.832 0-12.908h4.16v2.026c.245-.886 1.575-2.15 3.696-2.15 2.632 0 4.7 1.858 4.7 5.854V28.5z" fill="#ffffff"/>
</g>
</svg>