<svg xmlns="http://www.w3.org/2000/svg" viewBox="0 0 615.02 174.5">
    <defs>
        <style>
        .a {
            fill: #dce4e3;
        }     
        </style>
    </defs>
    <path class="a" d="M264.45,82.67c-6.4,5.2-15.2,7.9-26.5,7.9s-20.3-2.6-26.6-7.8-9.4-13.3-9.4-24.1V9.07h18.6v49.6a33.87,33.87,0,0,0,.6,6.4,12,12,0,0,0,2.5,5.5,13.58,13.58,0,0,0,5.3,3.9,23,23,0,0,0,9.1,1.5c6.6,0,11.2-1.4,13.7-4.2s3.8-7.2,3.8-13.1V9.07h18.6v49.6c-.1,10.7-3.3,18.7-9.7,24"></path><path class="a" d="M304.25,69.07a11.89,11.89,0,0,0,4.1,4.5,18.19,18.19,0,0,0,6,2.6,28.13,28.13,0,0,0,7.1.8,33.17,33.17,0,0,0,5.3-.4,21.75,21.75,0,0,0,5.3-1.5,10.63,10.63,0,0,0,4.1-3.1,7.56,7.56,0,0,0,1.7-5,6.8,6.8,0,0,0-2.2-5.3,18.79,18.79,0,0,0-5.8-3.3,52.21,52.21,0,0,0-8.1-2.3c-3-.7-6-1.4-9.1-2.2a89.09,89.09,0,0,1-9.2-2.7,31.9,31.9,0,0,1-8-4.2,19.38,19.38,0,0,1-5.7-6.4,18.29,18.29,0,0,1-2.2-9.3,19.87,19.87,0,0,1,2.8-10.7,24.85,24.85,0,0,1,7.3-7.5,33.69,33.69,0,0,1,10.2-4.5,44.63,44.63,0,0,1,11.4-1.5A58.15,58.15,0,0,1,332,8.47a30.83,30.83,0,0,1,10.8,4.5,22.45,22.45,0,0,1,10.3,19.8h-18a13.75,13.75,0,0,0-1.6-5.9,9.85,9.85,0,0,0-3.6-3.7,16,16,0,0,0-5.2-1.9,30.64,30.64,0,0,0-6.3-.6,34.19,34.19,0,0,0-4.5.4,11.34,11.34,0,0,0-4.1,1.6,10,10,0,0,0-3,2.8,7,7,0,0,0-1.2,4.2,6.32,6.32,0,0,0,1,3.8,8.06,8.06,0,0,0,3.7,2.7,63.82,63.82,0,0,0,7.7,2.5c3.3.8,7.6,1.9,12.9,3.1,1.6.3,3.8.8,6.6,1.6a32.05,32.05,0,0,1,8.3,3.7A23.6,23.6,0,0,1,353,54a18.8,18.8,0,0,1,3,11,23.7,23.7,0,0,1-2.2,10.2,22.41,22.41,0,0,1-6.7,8.1,33.14,33.14,0,0,1-11,5.3,53.52,53.52,0,0,1-15.2,1.9,55.64,55.64,0,0,1-13.6-1.6,35.92,35.92,0,0,1-11.6-5.1,25,25,0,0,1-8-8.8,24.57,24.57,0,0,1-2.8-12.7h18a12.94,12.94,0,0,0,1.4,6.8"></path><polygon class="a" points="360.25 23.77 360.25 9.07 429.55 9.07 429.55 23.77 404.15 23.77 404.15 88.77 385.55 88.77 385.55 23.77 360.25 23.77"></polygon><path class="a" d="M438.45,32.67a37.7,37.7,0,0,1,8.2-13.3,36.69,36.69,0,0,1,13.1-8.9,44.38,44.38,0,0,1,17.5-3.2,45.88,45.88,0,0,1,17.5,3.2,37.6,37.6,0,0,1,13,8.9,38.61,38.61,0,0,1,8.2,13.3,47.06,47.06,0,0,1,2.9,16.6,45.25,45.25,0,0,1-2.9,16.2,37.76,37.76,0,0,1-8.2,13.1,38.78,38.78,0,0,1-13,8.8,49.45,49.45,0,0,1-35,0,36.46,36.46,0,0,1-13.1-8.8,37.76,37.76,0,0,1-8.2-13.1,45.21,45.21,0,0,1-2.8-16.2,44.89,44.89,0,0,1,2.8-16.6m17,26.3a24.67,24.67,0,0,0,4,8.5,20.07,20.07,0,0,0,7.1,6.1,23.18,23.18,0,0,0,10.7,2.3,23.48,23.48,0,0,0,10.7-2.3,20.07,20.07,0,0,0,7.1-6.1,27.69,27.69,0,0,0,4-8.5,39.91,39.91,0,0,0,1.3-9.8,38.56,38.56,0,0,0-1.3-10.2,24.36,24.36,0,0,0-4-8.8,19.12,19.12,0,0,0-7.1-6.1,23.18,23.18,0,0,0-10.7-2.3,23.48,23.48,0,0,0-10.7,2.3,20.07,20.07,0,0,0-7.1,6.1,28.28,28.28,0,0,0-4,8.8,43.14,43.14,0,0,0-1.2,10.2,31.76,31.76,0,0,0,1.2,9.8"></path><path class="a" d="M573.55,9.07l31.6,79.7h-19.3l-6.4-17.7h-31.6l-6.6,17.7h-18.7l32-79.7Zm1,48.9-10.7-29.3h-.2l-11,29.3Z"></path><path class="a" d="M25.05,118.07a10.59,10.59,0,0,1-6.8,2,10.59,10.59,0,0,1-6.8-2c-1.6-1.3-2.4-3.4-2.4-6.2V99.17h4.8v12.7a8.75,8.75,0,0,0,.2,1.6,3.51,3.51,0,0,0,.6,1.4,3.88,3.88,0,0,0,1.4,1,5.27,5.27,0,0,0,2.3.4c1.7,0,2.9-.4,3.5-1.1a5.1,5.1,0,0,0,1-3.4V99.07h4.8v12.7c-.2,2.9-1,4.9-2.6,6.3"></path><path class="a" d="M35.25,104.77v2.1h.1a4.78,4.78,0,0,1,2.1-1.9,6.6,6.6,0,0,1,2.7-.6,7.22,7.22,0,0,1,2.8.4,4.34,4.34,0,0,1,1.7,1.2,5.57,5.57,0,0,1,.9,1.9,10.07,10.07,0,0,1,.3,2.5v9.1h-4.3v-8.4a4.91,4.91,0,0,0-.6-2.7,2.41,2.41,0,0,0-2.2-.9,2.8,2.8,0,0,0-2.5,1,5.49,5.49,0,0,0-.8,3.3v7.8h-4.3v-14.8Z"></path><path class="a" d="M49.25,99.17h4.3v3.3h-4.3Zm4.3,20.4h-4.3v-14.8h4.3Z"></path><path class="a" d="M65.65,104.77v2.7h-3.2v7.3a1.81,1.81,0,0,0,.4,1.4,2.37,2.37,0,0,0,1.5.3h.7a1.27,1.27,0,0,0,.6-.1v3.2a4.87,4.87,0,0,1-1.2.1h-1.3a11.48,11.48,0,0,1-1.9-.1,7.49,7.49,0,0,1-1.6-.5,2.35,2.35,0,0,1-1.1-1.1,3.42,3.42,0,0,1-.4-1.8v-8.7h-2.6v-2.7h2.6v-4.4h4.3v4.4Z"></path><path class="a" d="M72.25,116.07a3.93,3.93,0,0,0,2.8.9,3.8,3.8,0,0,0,2.2-.6,2.93,2.93,0,0,0,1.2-1.3h3.8a6.61,6.61,0,0,1-2.8,3.8,8.49,8.49,0,0,1-4.6,1.1,8.81,8.81,0,0,1-3.3-.6,6.92,6.92,0,0,1-4.1-4.1,8.29,8.29,0,0,1-.6-3.2,8.15,8.15,0,0,1,.6-3.1,7.16,7.16,0,0,1,1.6-2.5,8.21,8.21,0,0,1,2.5-1.6,8.81,8.81,0,0,1,3.3-.6,7.82,7.82,0,0,1,3.5.7,5.88,5.88,0,0,1,2.4,2,9.2,9.2,0,0,1,1.4,2.8,8.85,8.85,0,0,1,.3,3.3H71.25a4.14,4.14,0,0,0,1,3m4.9-7.8a3.29,3.29,0,0,0-2.4-.8,4,4,0,0,0-1.7.3,3.13,3.13,0,0,0-1.1.8,2.66,2.66,0,0,0-.6,1,4.4,4.4,0,0,0-.2,1h7a3.78,3.78,0,0,0-1-2.3"></path><path class="a" d="M96.25,117.67a4.1,4.1,0,0,1-2,1.7,6.1,6.1,0,0,1-2.8.5,7.45,7.45,0,0,1-3.1-.6,6.2,6.2,0,0,1-2.2-1.7,7.45,7.45,0,0,1-1.3-2.5,9.89,9.89,0,0,1-.4-3,9.25,9.25,0,0,1,.4-2.9,8.53,8.53,0,0,1,1.3-2.5,6.2,6.2,0,0,1,2.2-1.7,7.31,7.31,0,0,1,3-.6,6.6,6.6,0,0,1,2.7.6,5.26,5.26,0,0,1,2,1.6h.1v-7.4h4.3v20.4h-4.1l-.1-1.9Zm-.2-7.3a3.39,3.39,0,0,0-.6-1.5,3.46,3.46,0,0,0-1.1-1,4.25,4.25,0,0,0-3.6,0,3.18,3.18,0,0,0-1.2,1.1,3.39,3.39,0,0,0-.6,1.5,7.75,7.75,0,0,0,0,3.5,3.48,3.48,0,0,0,.7,1.5,4.26,4.26,0,0,0,1.2,1.1,3.29,3.29,0,0,0,1.7.4,3.42,3.42,0,0,0,1.8-.4,2.35,2.35,0,0,0,1.1-1.1,4,4,0,0,0,.6-1.5,8.2,8.2,0,0,0,0-3.6"></path><path class="a" d="M116.15,114.57a4,4,0,0,0,1,1.2,5.23,5.23,0,0,0,1.5.7,11,11,0,0,0,1.8.2,7.08,7.08,0,0,0,1.4-.1,7.37,7.37,0,0,0,1.4-.4,4.44,4.44,0,0,0,1.1-.8,1.84,1.84,0,0,0,.4-1.3,1.61,1.61,0,0,0-.6-1.3,9.88,9.88,0,0,0-1.5-.9q-.9-.3-2.1-.6l-2.3-.6a21.72,21.72,0,0,1-2.4-.7,7,7,0,0,1-2.1-1.1,5.72,5.72,0,0,1-1.5-1.6,4.75,4.75,0,0,1-.6-2.4,4.53,4.53,0,0,1,.7-2.7,5.75,5.75,0,0,1,1.9-1.9,7.56,7.56,0,0,1,2.6-1.1,14.46,14.46,0,0,1,2.9-.4,12.42,12.42,0,0,1,3.3.4,7,7,0,0,1,2.8,1.2,5.2,5.2,0,0,1,1.9,2,5.56,5.56,0,0,1,.7,3h-4.6a3.31,3.31,0,0,0-.4-1.5,2,2,0,0,0-.9-.9,5,5,0,0,0-1.3-.5,8.08,8.08,0,0,0-1.6-.1,4.87,4.87,0,0,0-1.2.1,3,3,0,0,0-1,.4,2.7,2.7,0,0,0-.8.7,1.8,1.8,0,0,0-.3,1.1,3,3,0,0,0,.2,1,2.85,2.85,0,0,0,1,.7,12.43,12.43,0,0,0,2,.6c.8.2,1.9.5,3.3.8.4.1,1,.2,1.7.4a6.7,6.7,0,0,1,2.1,1,5.16,5.16,0,0,1,1.8,1.8,4.88,4.88,0,0,1,.8,2.8,5.83,5.83,0,0,1-.6,2.6,6.84,6.84,0,0,1-1.7,2.1,10.47,10.47,0,0,1-2.8,1.4,14.79,14.79,0,0,1-3.9.5,13.42,13.42,0,0,1-3.5-.4,10.11,10.11,0,0,1-3-1.3,5.59,5.59,0,0,1-2-2.3,6.71,6.71,0,0,1-.7-3.3h4.6a13.14,13.14,0,0,0,.5,1.5"></path><path class="a" d="M140.45,104.77v2.7h-3.2v7.3a1.81,1.81,0,0,0,.4,1.4,2.37,2.37,0,0,0,1.5.3h.7a1.27,1.27,0,0,0,.6-.1v3.2a4.87,4.87,0,0,1-1.2.1H138a11.48,11.48,0,0,1-1.9-.1,7.49,7.49,0,0,1-1.6-.5,2.35,2.35,0,0,1-1.1-1.1,3.42,3.42,0,0,1-.4-1.8v-8.7h-2.6v-2.7H133v-4.4h4.3v4.4Z"></path><path class="a" d="M143.05,107a5,5,0,0,1,1.7-1.5,6.31,6.31,0,0,1,2.3-.8,11.4,11.4,0,0,1,2.6-.2,19.42,19.42,0,0,1,2.4.2,7.94,7.94,0,0,1,2.2.6,3.44,3.44,0,0,1,1.6,1.3,3.59,3.59,0,0,1,.6,2.2v7.7a11.48,11.48,0,0,0,.1,1.9,3.92,3.92,0,0,0,.4,1.4h-4.4c-.1-.2-.1-.5-.2-.7s-.1-.5-.1-.7a5.85,5.85,0,0,1-2.4,1.4,9.25,9.25,0,0,1-2.9.4,6.65,6.65,0,0,1-2.1-.3,5.31,5.31,0,0,1-1.7-.8,3,3,0,0,1-1.1-1.4,4.21,4.21,0,0,1-.4-2,4.65,4.65,0,0,1,.5-2.1,3.74,3.74,0,0,1,1.2-1.3,5.09,5.09,0,0,1,1.7-.7,12.86,12.86,0,0,1,1.9-.4,12.25,12.25,0,0,1,1.9-.2,8.58,8.58,0,0,0,1.7-.3,3.34,3.34,0,0,0,1.2-.5,1.05,1.05,0,0,0,.4-1,2.51,2.51,0,0,0-.2-1,1.7,1.7,0,0,0-.6-.6,9.44,9.44,0,0,0-.9-.3,3.75,3.75,0,0,0-1.1-.1,3.94,3.94,0,0,0-2,.5,2.19,2.19,0,0,0-.9,1.7h-4.3a6.69,6.69,0,0,1,.9-2.4m8.5,5.7a2.92,2.92,0,0,1-.9.2,3.08,3.08,0,0,1-1,.1c-.3,0-.7.1-1,.1s-.6.1-1,.2a2,2,0,0,0-.8.4l-.6.6a2.39,2.39,0,0,0-.2.9,2,2,0,0,0,.2.9,1.7,1.7,0,0,0,.6.6,6.89,6.89,0,0,0,.8.3,3.4,3.4,0,0,0,1,.1,4,4,0,0,0,2-.4,2.4,2.4,0,0,0,1-1,2.46,2.46,0,0,0,.4-1.1c0-.4.1-.7.1-.9v-1.3a.85.85,0,0,1-.6.3"></path><path class="a" d="M168.55,104.77v2.7h-3.2v7.3a1.81,1.81,0,0,0,.4,1.4,2.37,2.37,0,0,0,1.5.3h.7a1.27,1.27,0,0,0,.6-.1v3.2a4.87,4.87,0,0,1-1.2.1h-1.3a11.48,11.48,0,0,1-1.9-.1,7.49,7.49,0,0,1-1.6-.5,2.35,2.35,0,0,1-1.1-1.1,3.42,3.42,0,0,1-.4-1.8v-8.7h-2.6v-2.7h2.6v-4.4h4.3v4.4Z"></path><path class="a" d="M175.25,116.07a3.93,3.93,0,0,0,2.8.9,3.8,3.8,0,0,0,2.2-.6,2.93,2.93,0,0,0,1.2-1.3h3.8a6.61,6.61,0,0,1-2.8,3.8,9.83,9.83,0,0,1-7.9.5,6.92,6.92,0,0,1-4.1-4.1,8.29,8.29,0,0,1-.6-3.2,8.15,8.15,0,0,1,.6-3.1,7.16,7.16,0,0,1,1.6-2.5,8.21,8.21,0,0,1,2.5-1.6,8.81,8.81,0,0,1,3.3-.6,7.82,7.82,0,0,1,3.5.7,5.88,5.88,0,0,1,2.4,2,9.2,9.2,0,0,1,1.4,2.8,8.85,8.85,0,0,1,.3,3.3h-11.3a4.15,4.15,0,0,0,1.1,3m4.8-7.8a3.29,3.29,0,0,0-2.4-.8,4,4,0,0,0-1.7.3,3.13,3.13,0,0,0-1.1.8,2.66,2.66,0,0,0-.6,1,4.4,4.4,0,0,0-.2,1h7a3.29,3.29,0,0,0-1-2.3"></path><path class="a" d="M191.65,116a2.7,2.7,0,0,0,.7.8,4.18,4.18,0,0,0,1,.4,4.87,4.87,0,0,0,1.2.1,3.75,3.75,0,0,0,1-.1l.9-.3a1.34,1.34,0,0,0,.7-.6,1.22,1.22,0,0,0,.3-.9c0-.6-.4-1.1-1.3-1.4a31.13,31.13,0,0,0-3.6-.9,12.09,12.09,0,0,1-1.8-.5,7.74,7.74,0,0,1-1.6-.7,3.84,3.84,0,0,1-1.1-1.1,2.73,2.73,0,0,1-.4-1.6,3.92,3.92,0,0,1,.6-2.3,3.64,3.64,0,0,1,1.6-1.4,5.19,5.19,0,0,1,2.2-.7,19.48,19.48,0,0,1,2.5-.2,21.05,21.05,0,0,1,2.5.2,4.85,4.85,0,0,1,2.1.8,7,7,0,0,1,1.6,1.4,4.18,4.18,0,0,1,.7,2.3h-4.1a2,2,0,0,0-.9-1.6,4.21,4.21,0,0,0-2-.4h-.8a2.35,2.35,0,0,0-.8.2,2.09,2.09,0,0,0-.6.4.84.84,0,0,0-.2.7,1,1,0,0,0,.4.9,10.91,10.91,0,0,0,1.1.6c.5.1,1,.3,1.6.4a11.63,11.63,0,0,1,1.8.4,12.09,12.09,0,0,1,1.8.5,4.81,4.81,0,0,1,1.6.8,3.18,3.18,0,0,1,1.1,1.2,3.06,3.06,0,0,1,.4,1.7,4.27,4.27,0,0,1-.6,2.4,4.89,4.89,0,0,1-1.6,1.6,5.72,5.72,0,0,1-2.3.8,11.4,11.4,0,0,1-2.6.2,12.41,12.41,0,0,1-2.7-.3,7.89,7.89,0,0,1-2.3-.9,5.17,5.17,0,0,1-1.7-1.6,4.9,4.9,0,0,1-.7-2.5h4.1a1.64,1.64,0,0,0,.2,1.2"></path><polygon class="a" points="211.55 102.97 211.55 99.17 229.25 99.17 229.25 102.97 222.75 102.97 222.75 119.57 218.05 119.57 218.05 102.97 211.55 102.97"></polygon><path class="a" d="M228.05,109a7.16,7.16,0,0,1,1.6-2.5,8.21,8.21,0,0,1,2.5-1.6,8.81,8.81,0,0,1,3.3-.6,9.34,9.34,0,0,1,3.4.6,7.6,7.6,0,0,1,2.6,1.6,6,6,0,0,1,1.6,2.5,8.29,8.29,0,0,1,.6,3.2,7.94,7.94,0,0,1-.6,3.2,6,6,0,0,1-1.6,2.4,7.6,7.6,0,0,1-2.6,1.6,9,9,0,0,1-3.4.5,11.42,11.42,0,0,1-3.3-.5,7.16,7.16,0,0,1-2.5-1.6,6.33,6.33,0,0,1-1.6-2.4,8.29,8.29,0,0,1-.6-3.2,8.66,8.66,0,0,1,.6-3.2m3.9,5a3.39,3.39,0,0,0,.6,1.5,4.26,4.26,0,0,0,1.2,1.1,4.25,4.25,0,0,0,3.6,0,3.18,3.18,0,0,0,1.2-1.1,4,4,0,0,0,.6-1.5,9.85,9.85,0,0,0,.2-1.7,8.81,8.81,0,0,0-.2-1.7,3.39,3.39,0,0,0-.6-1.5,4.26,4.26,0,0,0-1.2-1.1,4.25,4.25,0,0,0-3.6,0,3.18,3.18,0,0,0-1.2,1.1,3.39,3.39,0,0,0-.6,1.5,7.32,7.32,0,0,0,0,3.4"></path><path class="a" d="M257.15,119.57v-2.1h-.1a4.78,4.78,0,0,1-2.1,1.9,6.6,6.6,0,0,1-2.7.6,7.22,7.22,0,0,1-2.8-.4,4.34,4.34,0,0,1-1.7-1.2,5.57,5.57,0,0,1-.9-1.9,10.07,10.07,0,0,1-.3-2.5v-9.1h4.3v8.4a4.91,4.91,0,0,0,.6,2.7,2.41,2.41,0,0,0,2.2.9,2.8,2.8,0,0,0,2.5-1,5.35,5.35,0,0,0,.8-3.2v-7.8h4.3v14.8h-4.1Z"></path><path class="a" d="M268.65,104.77v2.7h.1a5.67,5.67,0,0,1,.8-1.3,4,4,0,0,1,1.2-1,3.51,3.51,0,0,1,1.4-.6,4.14,4.14,0,0,1,1.6-.2,2.77,2.77,0,0,1,.9.1v3.8c-.2,0-.4-.1-.7-.1h-.8a4,4,0,0,0-2,.4,3.25,3.25,0,0,0-1.3,1,3.48,3.48,0,0,0-.7,1.5,11.08,11.08,0,0,0-.2,1.9v6.7h-4.3v-14.8h4Z"></path><path class="a" d="M285.05,105.17a10.78,10.78,0,0,1,2.1-3.4,9.29,9.29,0,0,1,3.4-2.3,10.64,10.64,0,0,1,4.5-.8,12.46,12.46,0,0,1,4.5.8,9.79,9.79,0,0,1,3.3,2.3,10.78,10.78,0,0,1,2.1,3.4,11.76,11.76,0,0,1,.7,4.3,11.58,11.58,0,0,1-.7,4.2,10.78,10.78,0,0,1-2.1,3.4,8.34,8.34,0,0,1-3.3,2.2,13.06,13.06,0,0,1-9,0,11.05,11.05,0,0,1-3.4-2.2,10.78,10.78,0,0,1-2.1-3.4,11.58,11.58,0,0,1-.7-4.2,10.52,10.52,0,0,1,.7-4.3m4.3,6.8a6.25,6.25,0,0,0,1,2.2,6.9,6.9,0,0,0,1.8,1.6,5.67,5.67,0,0,0,2.7.6,5.4,5.4,0,0,0,2.7-.6,4.64,4.64,0,0,0,1.8-1.6,6.25,6.25,0,0,0,1-2.2,10.07,10.07,0,0,0,.3-2.5,10.9,10.9,0,0,0-.3-2.6,6.71,6.71,0,0,0-1-2.3,5.48,5.48,0,0,0-1.8-1.6,5.67,5.67,0,0,0-2.7-.6,5.4,5.4,0,0,0-2.7.6,4.64,4.64,0,0,0-1.8,1.6,6,6,0,0,0-1,2.3,10.9,10.9,0,0,0-.3,2.6,10.07,10.07,0,0,0,.3,2.5"></path><path class="a" d="M312.45,104.77v1.9h.1a4.94,4.94,0,0,1,2-1.8,5.92,5.92,0,0,1,2.7-.5,6.57,6.57,0,0,1,3.2.7,6.2,6.2,0,0,1,2.2,1.7,7.45,7.45,0,0,1,1.3,2.5,10.32,10.32,0,0,1,.4,3,9.67,9.67,0,0,1-.4,2.9,7,7,0,0,1-1.3,2.4,6.2,6.2,0,0,1-2.2,1.7,7.31,7.31,0,0,1-3,.6,6,6,0,0,1-2.7-.6,5.26,5.26,0,0,1-2-1.6h-.1v7h-4.3v-20h4.1Zm5.6,11.8a4,4,0,0,0,1.2-1,3.39,3.39,0,0,0,.6-1.5,11.14,11.14,0,0,0,.2-1.7,8.81,8.81,0,0,0-.2-1.7,3.48,3.48,0,0,0-.7-1.5,4.26,4.26,0,0,0-1.2-1.1,3.29,3.29,0,0,0-1.7-.4,3.42,3.42,0,0,0-1.8.4,3.18,3.18,0,0,0-1.2,1.1,3.39,3.39,0,0,0-.6,1.5,11,11,0,0,0-.2,1.8,8.81,8.81,0,0,0,.2,1.7,3.39,3.39,0,0,0,.6,1.5,2.94,2.94,0,0,0,1.2,1,3.42,3.42,0,0,0,1.8.4,5.64,5.64,0,0,0,1.8-.5"></path><path class="a" d="M331.55,116.07a4.1,4.1,0,0,0,2.8.9,3.8,3.8,0,0,0,2.2-.6,2.93,2.93,0,0,0,1.2-1.3h3.8a6.61,6.61,0,0,1-2.8,3.8,8.49,8.49,0,0,1-4.6,1.1,8.81,8.81,0,0,1-3.3-.6,6.92,6.92,0,0,1-4.1-4.1,8.29,8.29,0,0,1-.6-3.2,8.15,8.15,0,0,1,.6-3.1,7.16,7.16,0,0,1,1.6-2.5,8.21,8.21,0,0,1,2.5-1.6,8.81,8.81,0,0,1,3.3-.6,7.82,7.82,0,0,1,3.5.7,5.88,5.88,0,0,1,2.4,2,9.2,9.2,0,0,1,1.4,2.8,8.85,8.85,0,0,1,.3,3.3h-11.3a4.63,4.63,0,0,0,1.1,3m4.9-7.8a3.29,3.29,0,0,0-2.4-.8,4,4,0,0,0-1.7.3,3.13,3.13,0,0,0-1.1.8,2.66,2.66,0,0,0-.6,1,4.4,4.4,0,0,0-.2,1h7a3.78,3.78,0,0,0-1-2.3"></path><path class="a" d="M348.45,104.77v2.7h.1a5.67,5.67,0,0,1,.8-1.3,4,4,0,0,1,1.2-1,3.51,3.51,0,0,1,1.4-.6,4.14,4.14,0,0,1,1.6-.2,2.77,2.77,0,0,1,.9.1v3.8c-.2,0-.4-.1-.7-.1H353a4,4,0,0,0-2,.4,3.25,3.25,0,0,0-1.3,1,3.48,3.48,0,0,0-.7,1.5,11.08,11.08,0,0,0-.2,1.9v6.7h-4.3v-14.8h4Z"></path><path class="a" d="M356.75,107a5,5,0,0,1,1.7-1.5,6.31,6.31,0,0,1,2.3-.8,11.4,11.4,0,0,1,2.6-.2,19.42,19.42,0,0,1,2.4.2,7.09,7.09,0,0,1,2.2.6,3.44,3.44,0,0,1,1.6,1.3,3.59,3.59,0,0,1,.6,2.2v7.7a11.48,11.48,0,0,0,.1,1.9,3.92,3.92,0,0,0,.4,1.4h-4.4a1.85,1.85,0,0,1-.2-.7c0-.2-.1-.5-.1-.7a5.85,5.85,0,0,1-2.4,1.4,9,9,0,0,1-2.8.4,7.11,7.11,0,0,1-2.1-.3,5.31,5.31,0,0,1-1.7-.8,3,3,0,0,1-1.1-1.4,4.21,4.21,0,0,1-.4-2,4.65,4.65,0,0,1,.5-2.1,3.74,3.74,0,0,1,1.2-1.3,5.09,5.09,0,0,1,1.7-.7,12.86,12.86,0,0,1,1.9-.4,12.25,12.25,0,0,1,1.9-.2,8.58,8.58,0,0,0,1.7-.3,3.34,3.34,0,0,0,1.2-.5,1.05,1.05,0,0,0,.4-1,2.51,2.51,0,0,0-.2-1,1.7,1.7,0,0,0-.6-.6l-.9-.3a3.75,3.75,0,0,0-1.1-.1,3.94,3.94,0,0,0-2,.5,2.19,2.19,0,0,0-.9,1.7H356a5.23,5.23,0,0,1,.8-2.4m8.5,5.7a2.92,2.92,0,0,1-.9.2,3.08,3.08,0,0,1-1,.1c-.3,0-.7.1-1,.1s-.6.1-1,.2a2,2,0,0,0-.8.4l-.6.6a2.39,2.39,0,0,0-.2.9,2,2,0,0,0,.2.9,1.7,1.7,0,0,0,.6.6,4.65,4.65,0,0,0,.9.3,3.4,3.4,0,0,0,1,.1,3.74,3.74,0,0,0,2-.4,2.4,2.4,0,0,0,1-1,2.46,2.46,0,0,0,.4-1.1c0-.4.1-.7.1-.9v-1.3a1.49,1.49,0,0,1-.7.3"></path><path class="a" d="M382.25,104.77v2.7h-3.1v7.3a1.81,1.81,0,0,0,.4,1.4,2.37,2.37,0,0,0,1.5.3h.7a1.27,1.27,0,0,0,.6-.1v3.2a4.87,4.87,0,0,1-1.2.1h-1.3a11.48,11.48,0,0,1-1.9-.1,7.49,7.49,0,0,1-1.6-.5,2.35,2.35,0,0,1-1.1-1.1,3.42,3.42,0,0,1-.4-1.8v-8.7h-2.7v-2.7h2.6v-4.4h4.3v4.4Z"></path><path class="a" d="M384.35,109a7.16,7.16,0,0,1,1.6-2.5,8.21,8.21,0,0,1,2.5-1.6,8.81,8.81,0,0,1,3.3-.6,9.34,9.34,0,0,1,3.4.6,7.6,7.6,0,0,1,2.6,1.6,6,6,0,0,1,1.6,2.5,8.29,8.29,0,0,1,.6,3.2,7.94,7.94,0,0,1-.6,3.2,6,6,0,0,1-1.6,2.4,7.6,7.6,0,0,1-2.6,1.6,9,9,0,0,1-3.4.5,11.42,11.42,0,0,1-3.3-.5,7.16,7.16,0,0,1-2.5-1.6,6.33,6.33,0,0,1-1.6-2.4,8.29,8.29,0,0,1-.6-3.2,16.47,16.47,0,0,1,.6-3.2m4,5a3.39,3.39,0,0,0,.6,1.5,4.26,4.26,0,0,0,1.2,1.1,4.25,4.25,0,0,0,3.6,0,3.18,3.18,0,0,0,1.2-1.1,4,4,0,0,0,.6-1.5,9.85,9.85,0,0,0,.2-1.7,8.81,8.81,0,0,0-.2-1.7,3.39,3.39,0,0,0-.6-1.5,4.26,4.26,0,0,0-1.2-1.1,4.25,4.25,0,0,0-3.6,0,3.18,3.18,0,0,0-1.2,1.1,3.39,3.39,0,0,0-.6,1.5,11.14,11.14,0,0,0-.2,1.7,5.24,5.24,0,0,0,.2,1.7"></path><path class="a" d="M407,104.77v2.7h.1a5.67,5.67,0,0,1,.8-1.3,4,4,0,0,1,1.2-1,3.51,3.51,0,0,1,1.4-.6,4.14,4.14,0,0,1,1.6-.2,2.77,2.77,0,0,1,.9.1v3.8c-.2,0-.4-.1-.7-.1h-.8a4,4,0,0,0-2,.4,3.25,3.25,0,0,0-1.3,1,3.48,3.48,0,0,0-.7,1.5,11.08,11.08,0,0,0-.2,1.9v6.7H403v-14.8h4Z"></path><path class="a" d="M418.25,116a2.7,2.7,0,0,0,.7.8,4.18,4.18,0,0,0,1,.4,4.87,4.87,0,0,0,1.2.1,3.75,3.75,0,0,0,1-.1l.9-.3a1.34,1.34,0,0,0,.7-.6,1.22,1.22,0,0,0,.3-.9c0-.6-.4-1.1-1.3-1.4a31.13,31.13,0,0,0-3.6-.9,12.09,12.09,0,0,1-1.8-.5,7.74,7.74,0,0,1-1.6-.7,3.84,3.84,0,0,1-1.1-1.1,2.73,2.73,0,0,1-.4-1.6,3.92,3.92,0,0,1,.6-2.3,3.64,3.64,0,0,1,1.6-1.4,5.68,5.68,0,0,1,2.2-.7,15.72,15.72,0,0,1,5,0,4.85,4.85,0,0,1,2.1.8,5.39,5.39,0,0,1,1.6,1.4,4.18,4.18,0,0,1,.7,2.3H424a2,2,0,0,0-.9-1.6,4.21,4.21,0,0,0-2-.4h-.8a2.35,2.35,0,0,0-.8.2,2.09,2.09,0,0,0-.6.4.84.84,0,0,0-.2.7,1,1,0,0,0,.4.9,10.91,10.91,0,0,0,1.1.6c.5.1,1,.3,1.6.4a11.63,11.63,0,0,1,1.8.4,12.09,12.09,0,0,1,1.8.5,4.81,4.81,0,0,1,1.6.8,3.18,3.18,0,0,1,1.1,1.2,3.06,3.06,0,0,1,.4,1.7,4.27,4.27,0,0,1-.6,2.4,4.89,4.89,0,0,1-1.6,1.6,5.72,5.72,0,0,1-2.3.8,11.4,11.4,0,0,1-2.6.2,12.41,12.41,0,0,1-2.7-.3,7.89,7.89,0,0,1-2.3-.9,5.17,5.17,0,0,1-1.7-1.6,4.9,4.9,0,0,1-.7-2.5h4.1a4.3,4.3,0,0,0,.2,1.2"></path><path class="a" d="M450.65,99.17l8.1,20.4h-4.9l-1.6-4.6h-8.1l-1.7,4.6h-4.8l8.2-20.4Zm.3,12.5-2.7-7.5h-.1l-2.8,7.5Z"></path><path class="a" d="M463.85,116a2.7,2.7,0,0,0,.7.8,4.18,4.18,0,0,0,1,.4,4.87,4.87,0,0,0,1.2.1,3.75,3.75,0,0,0,1-.1l.9-.3a1.34,1.34,0,0,0,.7-.6,1.22,1.22,0,0,0,.3-.9c0-.6-.4-1.1-1.3-1.4a31.13,31.13,0,0,0-3.6-.9,12.09,12.09,0,0,1-1.8-.5,7.74,7.74,0,0,1-1.6-.7,3.84,3.84,0,0,1-1.1-1.1,2.73,2.73,0,0,1-.4-1.6,3.92,3.92,0,0,1,.6-2.3,3.64,3.64,0,0,1,1.6-1.4,5.68,5.68,0,0,1,2.2-.7,15.72,15.72,0,0,1,5,0,4.85,4.85,0,0,1,2.1.8A5.39,5.39,0,0,1,473,107a4.18,4.18,0,0,1,.7,2.3h-4.1a2,2,0,0,0-.9-1.6,4.21,4.21,0,0,0-2-.4h-.8a2.35,2.35,0,0,0-.8.2,2.09,2.09,0,0,0-.6.4.84.84,0,0,0-.2.7,1,1,0,0,0,.4.9,10.91,10.91,0,0,0,1.1.6c.5.1,1,.3,1.6.4a11.63,11.63,0,0,1,1.8.4,12.09,12.09,0,0,1,1.8.5,4.81,4.81,0,0,1,1.6.8,3.18,3.18,0,0,1,1.1,1.2,3.06,3.06,0,0,1,.4,1.7,4.27,4.27,0,0,1-.6,2.4,4.89,4.89,0,0,1-1.6,1.6,5.72,5.72,0,0,1-2.3.8,11.4,11.4,0,0,1-2.6.2,12.41,12.41,0,0,1-2.7-.3,7.89,7.89,0,0,1-2.3-.9,5.17,5.17,0,0,1-1.7-1.6,4.9,4.9,0,0,1-.7-2.5h4.1a1.64,1.64,0,0,0,.2,1.2"></path><path class="a" d="M480.15,116a2.7,2.7,0,0,0,.7.8,3.58,3.58,0,0,0,1.1.4,4.87,4.87,0,0,0,1.2.1,3.75,3.75,0,0,0,1-.1l.9-.3a1.34,1.34,0,0,0,.7-.6,1.22,1.22,0,0,0,.3-.9c0-.6-.4-1.1-1.3-1.4a31.13,31.13,0,0,0-3.6-.9,12.09,12.09,0,0,1-1.8-.5,7.74,7.74,0,0,1-1.6-.7,3.84,3.84,0,0,1-1.1-1.1,2.73,2.73,0,0,1-.4-1.6,3.92,3.92,0,0,1,.6-2.3,3.64,3.64,0,0,1,1.6-1.4,5.68,5.68,0,0,1,2.2-.7,15.72,15.72,0,0,1,5,0,4.85,4.85,0,0,1,2.1.8,5.39,5.39,0,0,1,1.6,1.4,4.18,4.18,0,0,1,.7,2.3H486a2,2,0,0,0-.9-1.6,4.21,4.21,0,0,0-2-.4h-.8a2.35,2.35,0,0,0-.8.2,2.09,2.09,0,0,0-.6.4.84.84,0,0,0-.2.7,1,1,0,0,0,.4.9,10.91,10.91,0,0,0,1.1.6c.5.1,1,.3,1.6.4a11.63,11.63,0,0,1,1.8.4,12.09,12.09,0,0,1,1.8.5,4.81,4.81,0,0,1,1.6.8,3.18,3.18,0,0,1,1.1,1.2,3.06,3.06,0,0,1,.4,1.7,4.27,4.27,0,0,1-.6,2.4,4.89,4.89,0,0,1-1.6,1.6,5.72,5.72,0,0,1-2.3.8,11.4,11.4,0,0,1-2.6.2,12.41,12.41,0,0,1-2.7-.3,7.89,7.89,0,0,1-2.3-.9,5.17,5.17,0,0,1-1.7-1.6,4.9,4.9,0,0,1-.7-2.5h4.1a1.26,1.26,0,0,0,.1,1.2"></path><path class="a" d="M493,109a7.16,7.16,0,0,1,1.6-2.5,7.6,7.6,0,0,1,2.6-1.6,8.81,8.81,0,0,1,3.3-.6,9.34,9.34,0,0,1,3.4.6,7.6,7.6,0,0,1,2.6,1.6,6,6,0,0,1,1.6,2.5,8.29,8.29,0,0,1,.6,3.2,7.94,7.94,0,0,1-.6,3.2,6,6,0,0,1-1.6,2.4,7.6,7.6,0,0,1-2.6,1.6,9,9,0,0,1-3.4.5,11.42,11.42,0,0,1-3.3-.5,8.69,8.69,0,0,1-2.6-1.6,6.33,6.33,0,0,1-1.6-2.4,8.29,8.29,0,0,1-.6-3.2,8.66,8.66,0,0,1,.6-3.2m3.9,5a3.39,3.39,0,0,0,.6,1.5,4.26,4.26,0,0,0,1.2,1.1,4.25,4.25,0,0,0,3.6,0,3.18,3.18,0,0,0,1.2-1.1,4,4,0,0,0,.6-1.5,9.85,9.85,0,0,0,.2-1.7,8.81,8.81,0,0,0-.2-1.7,3.39,3.39,0,0,0-.6-1.5,4.26,4.26,0,0,0-1.2-1.1,4.25,4.25,0,0,0-3.6,0,3.18,3.18,0,0,0-1.2,1.1,3.39,3.39,0,0,0-.6,1.5,7.32,7.32,0,0,0,0,3.4"></path><path class="a" d="M518.85,107.47a2.86,2.86,0,0,0-1.7.4,3.84,3.84,0,0,0-1.1,1.1,4.71,4.71,0,0,0-.6,1.5,9.85,9.85,0,0,0-.2,1.7,8.75,8.75,0,0,0,.2,1.6,3.39,3.39,0,0,0,.6,1.5,2.91,2.91,0,0,0,1.1,1.1,3.06,3.06,0,0,0,1.7.4,3.65,3.65,0,0,0,2.4-.8,3.25,3.25,0,0,0,1-2.2h4.2a6.64,6.64,0,0,1-2.4,4.5,8.14,8.14,0,0,1-5.1,1.5,7.94,7.94,0,0,1-3.2-.6,7.16,7.16,0,0,1-2.5-1.6,7.76,7.76,0,0,1-1.6-2.4,7.31,7.31,0,0,1-.6-3,11.27,11.27,0,0,1,.5-3.2,7.16,7.16,0,0,1,1.6-2.5,7.39,7.39,0,0,1,2.5-1.7,9,9,0,0,1,3.4-.6,12.41,12.41,0,0,1,2.7.3,8,8,0,0,1,2.3,1,9.12,9.12,0,0,1,1.7,1.7,4.9,4.9,0,0,1,.7,2.5h-4.2a3.17,3.17,0,0,0-3.4-2.2"></path><path class="a" d="M529,99.17h4.3v3.3H529Zm4.3,20.4H529v-14.8h4.3Z"></path><path class="a" d="M537.25,107a5,5,0,0,1,1.7-1.5,6.31,6.31,0,0,1,2.3-.8,11.4,11.4,0,0,1,2.6-.2,19.42,19.42,0,0,1,2.4.2,7.09,7.09,0,0,1,2.2.6,3.44,3.44,0,0,1,1.6,1.3,3.59,3.59,0,0,1,.6,2.2v7.7a11.48,11.48,0,0,0,.1,1.9,3.92,3.92,0,0,0,.4,1.4h-4.4c-.1-.2-.1-.5-.2-.7s-.1-.5-.1-.7a5.85,5.85,0,0,1-2.4,1.4,9.25,9.25,0,0,1-2.9.4,7.61,7.61,0,0,1-2.1-.3,4.47,4.47,0,0,1-1.7-.8,3,3,0,0,1-1.1-1.4,4.21,4.21,0,0,1-.4-2,4.65,4.65,0,0,1,.5-2.1,3.74,3.74,0,0,1,1.2-1.3,5.09,5.09,0,0,1,1.7-.7,12.86,12.86,0,0,1,1.9-.4,12.25,12.25,0,0,1,1.9-.2,8.58,8.58,0,0,0,1.7-.3,3.34,3.34,0,0,0,1.2-.5,1.05,1.05,0,0,0,.4-1,2.51,2.51,0,0,0-.2-1,1.7,1.7,0,0,0-.6-.6,9.44,9.44,0,0,0-.9-.3,3.75,3.75,0,0,0-1.1-.1,3.68,3.68,0,0,0-2,.5,1.88,1.88,0,0,0-.8,1.7h-4.3a4.29,4.29,0,0,1,.8-2.4m8.5,5.7a2.92,2.92,0,0,1-.9.2,3.08,3.08,0,0,1-1,.1c-.4,0-.7.1-1,.1s-.6.1-1,.2a2,2,0,0,0-.8.4l-.6.6a2.39,2.39,0,0,0-.2.9,2,2,0,0,0,.2.9,1.7,1.7,0,0,0,.6.6,4.65,4.65,0,0,0,.9.3,3.4,3.4,0,0,0,1,.1,3.74,3.74,0,0,0,2-.4,2.4,2.4,0,0,0,1-1,2.46,2.46,0,0,0,.4-1.1c0-.4.1-.7.1-.9v-1.3a1.49,1.49,0,0,1-.7.3"></path><path class="a" d="M562.65,104.77v2.7h-3.2v7.3a1.81,1.81,0,0,0,.4,1.4,2.37,2.37,0,0,0,1.5.3h.7a1.27,1.27,0,0,0,.6-.1v3.2a4.87,4.87,0,0,1-1.2.1h-1.3a11.48,11.48,0,0,1-1.9-.1,7.49,7.49,0,0,1-1.6-.5,2.35,2.35,0,0,1-1.1-1.1,3.42,3.42,0,0,1-.4-1.8v-8.7h-2.6v-2.7h2.6v-4.4h4.3v4.4Z"></path><path class="a" d="M564.85,99.17h4.3v3.3h-4.3Zm4.3,20.4h-4.3v-14.8h4.3Z"></path><path class="a" d="M572.65,109a7.16,7.16,0,0,1,1.6-2.5,8.21,8.21,0,0,1,2.5-1.6,8.81,8.81,0,0,1,3.3-.6,9.34,9.34,0,0,1,3.4.6,7.6,7.6,0,0,1,2.6,1.6,6,6,0,0,1,1.6,2.5,8.29,8.29,0,0,1,.6,3.2,7.94,7.94,0,0,1-.6,3.2,6,6,0,0,1-1.6,2.4,7.6,7.6,0,0,1-2.6,1.6,9,9,0,0,1-3.4.5,10.9,10.9,0,0,1-3.3-.5,7.16,7.16,0,0,1-2.5-1.6,6.33,6.33,0,0,1-1.6-2.4,8.29,8.29,0,0,1-.6-3.2,11.34,11.34,0,0,1,.6-3.2m4,5a3.39,3.39,0,0,0,.6,1.5,4.26,4.26,0,0,0,1.2,1.1,4.25,4.25,0,0,0,3.6,0,3.18,3.18,0,0,0,1.2-1.1,4,4,0,0,0,.6-1.5,9.85,9.85,0,0,0,.2-1.7,8.81,8.81,0,0,0-.2-1.7,3.39,3.39,0,0,0-.6-1.5,4.26,4.26,0,0,0-1.2-1.1,4.25,4.25,0,0,0-3.6,0,3.18,3.18,0,0,0-1.2,1.1,3.39,3.39,0,0,0-.6,1.5,11.14,11.14,0,0,0-.2,1.7,5.24,5.24,0,0,0,.2,1.7"></path><path class="a" d="M595.25,104.77v2.1h.1a4.78,4.78,0,0,1,2.1-1.9,6.6,6.6,0,0,1,2.7-.6,7.22,7.22,0,0,1,2.8.4,4.34,4.34,0,0,1,1.7,1.2,5.57,5.57,0,0,1,.9,1.9,10.07,10.07,0,0,1,.3,2.5v9.1h-4.3v-8.4a4.91,4.91,0,0,0-.6-2.7,2.41,2.41,0,0,0-2.2-.9,2.8,2.8,0,0,0-2.5,1,5.49,5.49,0,0,0-.8,3.3v7.8h-4.3v-14.8Z"></path><path class="a" d="M12.25,159.87a3.52,3.52,0,0,0,1.9,1v-5c-.1,0-.2-.1-.3-.1a4.33,4.33,0,0,0-.5-.1,12.66,12.66,0,0,1-1.8-.6,4.17,4.17,0,0,1-1.6-.9,3.34,3.34,0,0,1-1.1-1.3,4,4,0,0,1-.4-2,4.65,4.65,0,0,1,.5-2.1,6.53,6.53,0,0,1,1.3-1.6,8.48,8.48,0,0,1,1.9-1,7.8,7.8,0,0,1,2.2-.4V144h1.5v1.8a6.48,6.48,0,0,1,2.1.5,4,4,0,0,1,1.8,1,4.43,4.43,0,0,1,1.2,1.5,6.46,6.46,0,0,1,.6,2.1H18a2.27,2.27,0,0,0-.6-1.6,2.13,2.13,0,0,0-1.5-.7v4.2c.2,0,.4.1.6.1a2.54,2.54,0,0,1,.7.2,7.9,7.9,0,0,1,2.9,1.2,5.3,5.3,0,0,1,1.5,1.5,4.71,4.71,0,0,1,.6,1.5,7.08,7.08,0,0,1,.1,1.4A3.92,3.92,0,0,1,22,160a4.69,4.69,0,0,1-1,1.6,7.21,7.21,0,0,1-1.9,1.4,8.35,8.35,0,0,1-3.1.7v2h-1.5v-2a7,7,0,0,1-4.4-1.6,5.91,5.91,0,0,1-1.8-4.3h3.6a2,2,0,0,0,.4,2.1m1.1-11.2a1.61,1.61,0,0,0-.7.4,2.65,2.65,0,0,0-.5.6,2,2,0,0,0-.2.9,1.66,1.66,0,0,0,.5,1.2,4.57,4.57,0,0,0,1.7.7v-3.9c-.2,0-.5.1-.8.1m3.3,12a3.55,3.55,0,0,0,.9-.4,1.34,1.34,0,0,0,.6-.7,1.89,1.89,0,0,0-.3-2.4,5.38,5.38,0,0,0-2.1-.8V161a3.18,3.18,0,0,1,.9-.3"></path><path class="a" d="M28.35,163.27v-10.9h-4.5v-2.6a10.87,10.87,0,0,0,1.8-.1,7.49,7.49,0,0,0,1.6-.5,4,4,0,0,0,1.2-1,3.82,3.82,0,0,0,.6-1.6H32v16.7Z"></path><polygon class="a" points="50.45 146.17 54.65 157.87 54.75 157.87 58.75 146.17 64.35 146.17 64.35 163.27 60.55 163.27 60.55 151.17 60.55 151.17 56.15 163.27 53.05 163.27 48.65 151.27 48.55 151.27 48.55 163.27 44.85 163.27 44.85 146.17 50.45 146.17"></polygon><rect class="a" x="67.85" y="146.17" width="4" height="17"></rect><polygon class="a" points="79.25 146.17 79.25 160.07 88.05 160.07 88.05 163.27 75.25 163.27 75.25 146.17 79.25 146.17"></polygon><polygon class="a" points="94.25 146.17 94.25 160.07 103.05 160.07 103.05 163.27 90.25 163.27 90.25 146.17 94.25 146.17"></polygon><rect class="a" x="105.25" y="146.17" width="4" height="17"></rect><path class="a" d="M112.55,151.27a8.75,8.75,0,0,1,1.7-2.8,9.23,9.23,0,0,1,2.8-1.9,9,9,0,0,1,3.7-.7,8.73,8.73,0,0,1,3.7.7,9.23,9.23,0,0,1,2.8,1.9,8.11,8.11,0,0,1,1.7,2.8,10.51,10.51,0,0,1,0,7,8.75,8.75,0,0,1-1.7,2.8,9.23,9.23,0,0,1-2.8,1.9,10.13,10.13,0,0,1-7.4,0,7.74,7.74,0,0,1-2.8-1.9,7.28,7.28,0,0,1-1.7-2.8,9.89,9.89,0,0,1-.6-3.5,10.3,10.3,0,0,1,.6-3.5m3.6,5.6a7.5,7.5,0,0,0,.8,1.8,4.71,4.71,0,0,0,1.5,1.3,5.21,5.21,0,0,0,2.3.5,5.56,5.56,0,0,0,2.3-.5,4.71,4.71,0,0,0,1.5-1.3,3.7,3.7,0,0,0,.8-1.8,7.61,7.61,0,0,0,.3-2.1,8.33,8.33,0,0,0-.3-2.2,10.84,10.84,0,0,0-.8-1.9,4.71,4.71,0,0,0-1.5-1.3,5.54,5.54,0,0,0-4.6,0,4.71,4.71,0,0,0-1.5,1.3,4.06,4.06,0,0,0-.8,1.9,7.8,7.8,0,0,0-.3,2.2,15.17,15.17,0,0,0,.3,2.1"></path><polygon class="a" points="136.35 146.17 143.85 157.67 143.95 157.67 143.95 146.17 147.65 146.17 147.65 163.27 143.65 163.27 136.15 151.87 136.15 151.87 136.15 163.27 132.45 163.27 132.45 146.17 136.35 146.17"></polygon><polygon class="a" points="156.75 149.37 156.75 146.17 171.55 146.17 171.55 149.37 166.15 149.37 166.15 163.27 162.15 163.27 162.15 149.37 156.75 149.37"></polygon><path class="a" d="M183.35,146.17a5.38,5.38,0,0,1,2.2.4,4.78,4.78,0,0,1,1.7,1,4.18,4.18,0,0,1,1.1,1.5,5.84,5.84,0,0,1,.4,1.8,4.41,4.41,0,0,1-.7,2.6,4.35,4.35,0,0,1-2.2,1.7v.1a2.28,2.28,0,0,1,1.2.6,6.47,6.47,0,0,1,.8.9,2.84,2.84,0,0,1,.4,1.2,5.85,5.85,0,0,1,.2,1.3,3.75,3.75,0,0,0,.1,1,4.1,4.1,0,0,0,.1,1.1,4.25,4.25,0,0,0,.2,1.1,3.55,3.55,0,0,0,.4.9h-4a5.33,5.33,0,0,1-.4-1.9,16.35,16.35,0,0,0-.2-2.2,3.12,3.12,0,0,0-.9-2,3.22,3.22,0,0,0-2.2-.6h-4v6.7h-4v-17h9.8Zm-1.4,7.7a3.28,3.28,0,0,0,2.1-.6,2.23,2.23,0,0,0,.7-1.9,2.14,2.14,0,0,0-.7-1.8,3.1,3.1,0,0,0-2.1-.6h-4.4v4.8H182Z"></path><path class="a" d="M200.85,146.17l6.8,17h-4.1l-1.4-3.8h-6.8l-1.4,3.8h-4l6.8-17Zm.3,10.5-2.3-6.2h-.1l-2.4,6.2Z"></path><polygon class="a" points="211.95 163.27 206.15 146.17 210.25 146.17 214.25 158.17 214.25 158.17 218.35 146.17 222.45 146.17 216.45 163.27 211.95 163.27"></polygon><polygon class="a" points="237.55 146.17 237.55 149.37 227.95 149.37 227.95 152.97 236.75 152.97 236.75 155.87 227.95 155.87 227.95 160.07 237.75 160.07 237.75 163.27 223.95 163.27 223.95 146.17 237.55 146.17"></polygon><polygon class="a" points="244.35 146.17 244.35 160.07 253.15 160.07 253.15 163.27 240.35 163.27 240.35 146.17 244.35 146.17"></polygon><polygon class="a" points="268.85 146.17 268.85 149.37 259.35 149.37 259.35 152.97 268.15 152.97 268.15 155.87 259.35 155.87 259.35 160.07 269.05 160.07 269.05 163.27 255.35 163.27 255.35 146.17 268.85 146.17"></polygon><path class="a" d="M281.55,146.17a5.38,5.38,0,0,1,2.2.4,4.78,4.78,0,0,1,1.7,1,4.18,4.18,0,0,1,1.1,1.5,5.84,5.84,0,0,1,.4,1.8,4.41,4.41,0,0,1-.7,2.6,4.35,4.35,0,0,1-2.2,1.7v.1a2.28,2.28,0,0,1,1.2.6,6.47,6.47,0,0,1,.8.9,2.84,2.84,0,0,1,.4,1.2,5.85,5.85,0,0,1,.2,1.3v1a4.1,4.1,0,0,0,.1,1.1,4.25,4.25,0,0,0,.2,1.1,3.55,3.55,0,0,0,.4.9h-4a5.33,5.33,0,0,1-.4-1.9c-.1-.7-.1-1.5-.2-2.2a3.12,3.12,0,0,0-.9-2,3.22,3.22,0,0,0-2.2-.6h-4v6.7h-4v-17h9.9Zm-1.5,7.7a2.81,2.81,0,0,0,2-.6,2.23,2.23,0,0,0,.7-1.9,2.14,2.14,0,0,0-.7-1.8,3,3,0,0,0-2-.6h-4.4v4.8h4.4Z"></path><path class="a" d="M293.05,159.07a2.84,2.84,0,0,0,.9,1c.4.2.8.4,1.3.6a7.72,7.72,0,0,0,1.5.2,4.1,4.1,0,0,0,1.1-.1c.4-.1.8-.2,1.1-.3a2.18,2.18,0,0,0,.9-.7,1.82,1.82,0,0,0,.4-1.1,1.43,1.43,0,0,0-.5-1.1,3.46,3.46,0,0,0-1.2-.7,8.45,8.45,0,0,0-1.7-.5,19.45,19.45,0,0,1-2-.5c-.7-.2-1.3-.4-2-.6a5.56,5.56,0,0,1-1.7-.9A4.07,4.07,0,0,1,290,153a3.94,3.94,0,0,1-.5-2,4.38,4.38,0,0,1,.6-2.3,4.89,4.89,0,0,1,1.6-1.6,11.21,11.21,0,0,1,2.2-1,9.86,9.86,0,0,1,2.4-.3,12.41,12.41,0,0,1,2.7.3,6,6,0,0,1,2.3,1,4.36,4.36,0,0,1,1.6,1.7,4.87,4.87,0,0,1,.6,2.5h-3.8a5,5,0,0,0-.3-1.3,3,3,0,0,0-.8-.8,3.58,3.58,0,0,0-1.1-.4,6.15,6.15,0,0,0-1.4-.1,3.75,3.75,0,0,0-1,.1l-.9.3a1.7,1.7,0,0,0-.6.6,1.22,1.22,0,0,0-.3.9,1.88,1.88,0,0,0,.2.8,1.83,1.83,0,0,0,.8.6,10.31,10.31,0,0,0,1.6.5c.7.2,1.6.4,2.7.7a10.63,10.63,0,0,0,1.4.3,7.1,7.1,0,0,1,1.8.8,5.36,5.36,0,0,1,1.5,1.5,4.14,4.14,0,0,1,.6,2.3,5.45,5.45,0,0,1-.5,2.2A4.57,4.57,0,0,1,302,162a5.35,5.35,0,0,1-2.4,1.1,10.64,10.64,0,0,1-3.3.4,13.58,13.58,0,0,1-2.9-.3,7.07,7.07,0,0,1-2.5-1.1,5.19,5.19,0,0,1-1.7-1.9,6,6,0,0,1-.6-2.7h3.8a15.78,15.78,0,0,1,.7,1.6"></path><path class="a" d="M322.45,146.17l6.8,17h-4.1l-1.4-3.8H317l-1.4,3.8h-4l6.8-17Zm.3,10.5-2.3-6.2h0l-2.4,6.2Z"></path><path class="a" d="M333.85,159.07a2.84,2.84,0,0,0,.9,1c.4.2.8.4,1.3.6a7.72,7.72,0,0,0,1.5.2,4.1,4.1,0,0,0,1.1-.1c.4-.1.8-.2,1.1-.3a3.11,3.11,0,0,0,.9-.7,1.82,1.82,0,0,0,.4-1.1,1.43,1.43,0,0,0-.5-1.1,3.46,3.46,0,0,0-1.2-.7,8.45,8.45,0,0,0-1.7-.5,19.45,19.45,0,0,1-2-.5c-.7-.2-1.3-.4-2-.6a5.56,5.56,0,0,1-1.7-.9,4.07,4.07,0,0,1-1.2-1.4,3.94,3.94,0,0,1-.5-2,4.38,4.38,0,0,1,.6-2.3,4.89,4.89,0,0,1,1.6-1.6,11.21,11.21,0,0,1,2.2-1,9.86,9.86,0,0,1,2.4-.3,11.76,11.76,0,0,1,2.7.3,6,6,0,0,1,2.3,1,4.36,4.36,0,0,1,1.6,1.7,4.87,4.87,0,0,1,.6,2.5h-3.8a5,5,0,0,0-.3-1.3,3,3,0,0,0-.8-.8,3.58,3.58,0,0,0-1.1-.4,6.15,6.15,0,0,0-1.4-.1,3.75,3.75,0,0,0-1,.1l-.9.3a1.7,1.7,0,0,0-.6.6,1.22,1.22,0,0,0-.3.9,1.88,1.88,0,0,0,.2.8,1.83,1.83,0,0,0,.8.6,10.31,10.31,0,0,0,1.6.5c.7.2,1.6.4,2.7.7a10.63,10.63,0,0,0,1.4.3,7.1,7.1,0,0,1,1.8.8,5.36,5.36,0,0,1,1.5,1.5,4.14,4.14,0,0,1,.6,2.3,5.45,5.45,0,0,1-.5,2.2,4.57,4.57,0,0,1-1.4,1.7,5.35,5.35,0,0,1-2.4,1.1,10.64,10.64,0,0,1-3.3.4,13.58,13.58,0,0,1-2.9-.3,7.07,7.07,0,0,1-2.5-1.1,5.19,5.19,0,0,1-1.7-1.9,6,6,0,0,1-.6-2.7h3.8a15.78,15.78,0,0,1,.7,1.6"></path><path class="a" d="M350.25,159.07a2.84,2.84,0,0,0,.9,1c.4.2.8.4,1.3.6a7.72,7.72,0,0,0,1.5.2,4.1,4.1,0,0,0,1.1-.1c.4-.1.8-.2,1.1-.3a2.18,2.18,0,0,0,.9-.7,1.82,1.82,0,0,0,.4-1.1,1.43,1.43,0,0,0-.5-1.1,3.46,3.46,0,0,0-1.2-.7,8.45,8.45,0,0,0-1.7-.5,19.45,19.45,0,0,1-2-.5c-.7-.2-1.3-.4-2-.6a5.56,5.56,0,0,1-1.7-.9,4.07,4.07,0,0,1-1.2-1.4,3.94,3.94,0,0,1-.5-2,4.38,4.38,0,0,1,.6-2.3,4.89,4.89,0,0,1,1.6-1.6,11.21,11.21,0,0,1,2.2-1,9.86,9.86,0,0,1,2.4-.3,12.41,12.41,0,0,1,2.7.3,6,6,0,0,1,2.3,1,4.36,4.36,0,0,1,1.6,1.7,4.87,4.87,0,0,1,.6,2.5h-3.8a5,5,0,0,0-.3-1.3,3,3,0,0,0-.8-.8,3.58,3.58,0,0,0-1.1-.4,6.15,6.15,0,0,0-1.4-.1,3.75,3.75,0,0,0-1,.1l-.9.3a1.7,1.7,0,0,0-.6.6,1.22,1.22,0,0,0-.3.9,1.88,1.88,0,0,0,.2.8,1.83,1.83,0,0,0,.8.6,10.31,10.31,0,0,0,1.6.5c.7.2,1.6.4,2.7.7a10.63,10.63,0,0,0,1.4.3,7.1,7.1,0,0,1,1.8.8,5.36,5.36,0,0,1,1.5,1.5,4.14,4.14,0,0,1,.6,2.3,5.45,5.45,0,0,1-.5,2.2,4.57,4.57,0,0,1-1.4,1.7,5.48,5.48,0,0,1-2.3,1.1,10.64,10.64,0,0,1-3.3.4,13.58,13.58,0,0,1-2.9-.3,7.07,7.07,0,0,1-2.5-1.1,5.19,5.19,0,0,1-1.7-1.9,6,6,0,0,1-.6-2.7h3.8c.3.7.4,1.2.6,1.6"></path><rect class="a" x="363.65" y="146.17" width="4" height="17"></rect><path class="a" d="M374.15,159.07a2.84,2.84,0,0,0,.9,1c.4.2.8.4,1.3.6a7.72,7.72,0,0,0,1.5.2,4.1,4.1,0,0,0,1.1-.1c.4-.1.8-.2,1.1-.3a3.11,3.11,0,0,0,.9-.7,1.82,1.82,0,0,0,.4-1.1,1.43,1.43,0,0,0-.5-1.1,3.46,3.46,0,0,0-1.2-.7,8.45,8.45,0,0,0-1.7-.5,19.45,19.45,0,0,1-2-.5c-.7-.2-1.3-.4-2-.6a5.56,5.56,0,0,1-1.7-.9,4.07,4.07,0,0,1-1.2-1.4,3.94,3.94,0,0,1-.5-2,4.38,4.38,0,0,1,.6-2.3,4.89,4.89,0,0,1,1.6-1.6,11.21,11.21,0,0,1,2.2-1,9.86,9.86,0,0,1,2.4-.3,11.76,11.76,0,0,1,2.7.3,6,6,0,0,1,2.3,1,4.36,4.36,0,0,1,1.6,1.7,4.87,4.87,0,0,1,.6,2.5h-3.8a2.77,2.77,0,0,0-.3-1.3,2,2,0,0,0-.8-.8,3.58,3.58,0,0,0-1.1-.4,6.15,6.15,0,0,0-1.4-.1,3.75,3.75,0,0,0-1,.1l-.9.3a1.7,1.7,0,0,0-.6.6,1.22,1.22,0,0,0-.3.9,1.88,1.88,0,0,0,.2.8,1.83,1.83,0,0,0,.8.6,10.31,10.31,0,0,0,1.6.5c.7.2,1.6.4,2.7.7a10.63,10.63,0,0,0,1.4.3,7.1,7.1,0,0,1,1.8.8,5.36,5.36,0,0,1,1.5,1.5,4.14,4.14,0,0,1,.6,2.3,5.45,5.45,0,0,1-.5,2.2,4.57,4.57,0,0,1-1.4,1.7,5.35,5.35,0,0,1-2.4,1.1,10.64,10.64,0,0,1-3.3.4,13.58,13.58,0,0,1-2.9-.3,7.07,7.07,0,0,1-2.5-1.1,5.19,5.19,0,0,1-1.7-1.9,6,6,0,0,1-.6-2.7h3.8a15.78,15.78,0,0,1,.7,1.6"></path><polygon class="a" points="386.15 149.37 386.15 146.17 400.85 146.17 400.85 149.37 395.45 149.37 395.45 163.27 391.55 163.27 391.55 149.37 386.15 149.37"></polygon><path class="a" d="M409.65,146.17l6.8,17h-4.1l-1.4-3.8h-6.8l-1.4,3.8h-4l6.8-17Zm.2,10.5-2.3-6.2h0l-2.4,6.2Z"></path><polygon class="a" points="421.95 146.17 429.45 157.67 429.55 157.67 429.55 146.17 433.25 146.17 433.25 163.27 429.25 163.27 421.75 151.87 421.65 151.87 421.65 163.27 417.95 163.27 417.95 146.17 421.95 146.17"></polygon><path class="a" d="M448.35,150.77a2,2,0,0,0-.9-.9,3.38,3.38,0,0,0-1.2-.6,5.9,5.9,0,0,0-1.4-.2,5.21,5.21,0,0,0-2.3.5,4.71,4.71,0,0,0-1.5,1.3,4.06,4.06,0,0,0-.8,1.9,7.8,7.8,0,0,0-.3,2.2,7.61,7.61,0,0,0,.3,2.1,7.5,7.5,0,0,0,.8,1.8,4.71,4.71,0,0,0,1.5,1.3,5.21,5.21,0,0,0,2.3.5,3.56,3.56,0,0,0,2.8-1,4.89,4.89,0,0,0,1.3-2.8h3.8a8.87,8.87,0,0,1-.8,2.9,6.2,6.2,0,0,1-1.7,2.2,7.22,7.22,0,0,1-2.4,1.4,10.07,10.07,0,0,1-3.1.5,8.73,8.73,0,0,1-3.7-.7,7.74,7.74,0,0,1-2.8-1.9,7.28,7.28,0,0,1-1.7-2.8,9.89,9.89,0,0,1-.6-3.5,9.51,9.51,0,0,1,.6-3.5,8.75,8.75,0,0,1,1.7-2.8,9.23,9.23,0,0,1,2.8-1.9,8.73,8.73,0,0,1,3.7-.7,8.63,8.63,0,0,1,2.8.4,9,9,0,0,1,2.4,1.2,6.14,6.14,0,0,1,1.7,1.9,7.29,7.29,0,0,1,.9,2.6h-3.8a3.35,3.35,0,0,0-.4-1.4"></path><polygon class="a" points="468.95 146.17 468.95 149.37 459.45 149.37 459.45 152.97 468.15 152.97 468.15 155.87 459.45 155.87 459.45 160.07 469.15 160.07 469.15 163.27 455.45 163.27 455.45 146.17 468.95 146.17"></polygon><path class="a" d="M487.05,146.17a8.36,8.36,0,0,1,2.9.5,5.16,5.16,0,0,1,1.9,1.2,4.52,4.52,0,0,1,1.1,1.7,6.93,6.93,0,0,1,.3,2,6.45,6.45,0,0,1-.3,2,4.87,4.87,0,0,1-1.1,1.8,5.16,5.16,0,0,1-1.9,1.2,8.36,8.36,0,0,1-2.9.5h-4.2v6.1h-4v-17Zm-1.1,8a5.28,5.28,0,0,0,1.3-.1,3.58,3.58,0,0,0,1.1-.4,2,2,0,0,0,.8-.8,3,3,0,0,0,0-2.6,2,2,0,0,0-.8-.8,3.58,3.58,0,0,0-1.1-.4,5.7,5.7,0,0,0-1.3-.1h-3.1v5.1H486Z"></path><path class="a" d="M505.45,146.17a5.38,5.38,0,0,1,2.2.4,5.85,5.85,0,0,1,1.7,1,4.18,4.18,0,0,1,1.1,1.5,5.84,5.84,0,0,1,.4,1.8,4.41,4.41,0,0,1-.7,2.6,4.35,4.35,0,0,1-2.2,1.7v.1a2.28,2.28,0,0,1,1.2.6,6.47,6.47,0,0,1,.8.9,2.84,2.84,0,0,1,.4,1.2,5.85,5.85,0,0,1,.2,1.3v1a4.1,4.1,0,0,0,.1,1.1,4.25,4.25,0,0,0,.2,1.1,3.55,3.55,0,0,0,.4.9h-4a5.33,5.33,0,0,1-.4-1.9,16.35,16.35,0,0,0-.2-2.2,2.6,2.6,0,0,0-3-2.6h-4v6.7h-4v-17h9.8Zm-1.4,7.7a2.81,2.81,0,0,0,2-.6,2.23,2.23,0,0,0,.7-1.9,2.14,2.14,0,0,0-.7-1.8,3,3,0,0,0-2-.6h-4.4v4.8h4.4Z"></path><path class="a" d="M513.85,151.27a8.75,8.75,0,0,1,1.7-2.8,9.23,9.23,0,0,1,2.8-1.9,9,9,0,0,1,3.7-.7,8.73,8.73,0,0,1,3.7.7,9.23,9.23,0,0,1,2.8,1.9,9.79,9.79,0,0,1,1.8,9.8,7.5,7.5,0,0,1-1.8,2.8,9.23,9.23,0,0,1-2.8,1.9,10.13,10.13,0,0,1-7.4,0,7.74,7.74,0,0,1-2.8-1.9,7.28,7.28,0,0,1-1.7-2.8,9.89,9.89,0,0,1-.6-3.5,10.3,10.3,0,0,1,.6-3.5m3.6,5.6a5.08,5.08,0,0,0,.9,1.8,4.71,4.71,0,0,0,1.5,1.3,5.21,5.21,0,0,0,2.3.5,5.56,5.56,0,0,0,2.3-.5,4.71,4.71,0,0,0,1.5-1.3,3.7,3.7,0,0,0,.8-1.8,7.61,7.61,0,0,0,.3-2.1,8.33,8.33,0,0,0-.3-2.2,10.84,10.84,0,0,0-.8-1.9,4.71,4.71,0,0,0-1.5-1.3,5.54,5.54,0,0,0-4.6,0,4.71,4.71,0,0,0-1.5,1.3,5.57,5.57,0,0,0-.9,1.9,7.8,7.8,0,0,0-.3,2.2,15.17,15.17,0,0,0,.3,2.1"></path><path class="a" d="M544.35,163.07a8,8,0,0,1-2.6.5,8.73,8.73,0,0,1-3.7-.7,7.74,7.74,0,0,1-2.8-1.9,7.28,7.28,0,0,1-1.7-2.8,9.89,9.89,0,0,1-.6-3.5,9.51,9.51,0,0,1,.6-3.5,8.75,8.75,0,0,1,1.7-2.8,9.23,9.23,0,0,1,2.8-1.9,9,9,0,0,1,3.7-.7,8.42,8.42,0,0,1,2.7.4,9,9,0,0,1,2.4,1.2,5.19,5.19,0,0,1,1.7,1.9,5.32,5.32,0,0,1,.8,2.6h-3.8a3,3,0,0,0-1.4-2.1,4.09,4.09,0,0,0-2.5-.7,5.56,5.56,0,0,0-2.3.5,4.71,4.71,0,0,0-1.5,1.3,5.57,5.57,0,0,0-.9,1.9,7.8,7.8,0,0,0-.3,2.2,7.61,7.61,0,0,0,.3,2.1,5.08,5.08,0,0,0,.9,1.8,4.71,4.71,0,0,0,1.5,1.3,5.21,5.21,0,0,0,2.3.5,5,5,0,0,0,3.1-.9,3.8,3.8,0,0,0,1.2-2.7h-4v-2.8h7.6v9.2h-2.4l-.4-1.9a7.48,7.48,0,0,1-2.4,1.5"></path><path class="a" d="M562.65,146.17a5.38,5.38,0,0,1,2.2.4,4.78,4.78,0,0,1,1.7,1,4.18,4.18,0,0,1,1.1,1.5,5.84,5.84,0,0,1,.4,1.8,4.41,4.41,0,0,1-.7,2.6,4.83,4.83,0,0,1-2.2,1.7v.1a2.28,2.28,0,0,1,1.2.6,6.47,6.47,0,0,1,.8.9,2.84,2.84,0,0,1,.4,1.2,5.85,5.85,0,0,1,.2,1.3,3.75,3.75,0,0,0,.1,1,4.1,4.1,0,0,0,.1,1.1,4.25,4.25,0,0,0,.2,1.1,3.55,3.55,0,0,0,.4.9h-4a5.33,5.33,0,0,1-.4-1.9c-.1-.7-.1-1.5-.2-2.2a3.12,3.12,0,0,0-.9-2,3.22,3.22,0,0,0-2.2-.6h-4v6.7h-4v-17h9.8Zm-1.4,7.7a3.28,3.28,0,0,0,2.1-.6,2.23,2.23,0,0,0,.7-1.9,2.14,2.14,0,0,0-.7-1.8,3.1,3.1,0,0,0-2.1-.6h-4.4v4.8h4.4Z"></path><path class="a" d="M580.15,146.17l6.8,17h-4.1l-1.4-3.8h-6.8l-1.4,3.8h-4l6.8-17Zm.2,10.5-2.2-6.3h0l-2.4,6.2h4.6Z"></path><polygon class="a" points="594.05 146.17 598.35 157.87 598.35 157.87 602.35 146.17 607.95 146.17 607.95 163.27 604.25 163.27 604.25 151.17 604.15 151.17 599.75 163.27 596.65 163.27 592.25 151.27 592.25 151.27 592.25 163.27 588.45 163.27 588.45 146.17 594.05 146.17"></polygon><rect class="a" x="9.75" y="130.59" width="597.9" height="3.96"></rect><path class="a" d="M8,9.07v79.8h192.8c-11.8-10.2-13.5-27.2-13.2-41.6.3-12.7.5-25.4.7-38.1H8ZM65.75,22l9.1,22.8h-5.5l-1.8-5.1h-9.1l-1.9,5.1h-5.4L60.35,22Zm.3,14L63,27.57h-.1L59.65,36Zm26.4-7.9a4.89,4.89,0,0,0-1.2-1.3,8.27,8.27,0,0,0-1.6-.9,5.82,5.82,0,0,0-1.9-.3,6.17,6.17,0,0,0-3.1.7,4.94,4.94,0,0,0-2,1.8,7.07,7.07,0,0,0-1.1,2.5,13.52,13.52,0,0,0-.4,2.9,8.63,8.63,0,0,0,.4,2.8,6.59,6.59,0,0,0,1.1,2.4,5.51,5.51,0,0,0,2,1.7,7.09,7.09,0,0,0,3.1.7,5.22,5.22,0,0,0,3.8-1.4,6.39,6.39,0,0,0,1.7-3.7h5.2a10.32,10.32,0,0,1-1.1,3.9,9.27,9.27,0,0,1-2.2,2.9,10.59,10.59,0,0,1-3.3,1.9,14.33,14.33,0,0,1-9.1-.3,9.7,9.7,0,0,1-3.7-2.5,10.48,10.48,0,0,1-2.3-3.8,14,14,0,0,1-.8-4.7,15.1,15.1,0,0,1,.8-4.8,10.48,10.48,0,0,1,2.3-3.8,12.33,12.33,0,0,1,3.7-2.6,13.48,13.48,0,0,1,5-.9,15.83,15.83,0,0,1,3.8.5,12,12,0,0,1,3.2,1.6,9.56,9.56,0,0,1,2.3,2.6,9.67,9.67,0,0,1,1.2,3.5h-5.2a5.34,5.34,0,0,0-.6-1.4m7.7-1.9V22h19.9v4.2h-7.3v18.7h-5.3V26.17Zm22.7-4.2h5.3v22.8h-5.3Zm15.2,22.9L130.25,22h5.5l5.3,16.1h.1l5.5-16.1h5.5l-8.1,22.9ZM172.35,22v4.2h-12.8v4.9h11.7V35h-11.7v5.6h13v4.3h-18.4V22ZM29.75,53.77l5.7,15.7h.1l5.3-15.7h7.5v22.8h-5V60.37h0l-6,16.2h-4.1l-5.9-16h-.1v16h-5V53.77Zm41.4,0V58H58.35v4.9h11.8v3.9H58.35v5.6h13.1v4.2H53.05V53.77Zm11.4,0,5.6,15.7h.1l5.4-15.7h7.5v22.8h-5V60.37h-.1l-5.9,16.2h-4.1l-6-16h0v16h-5V53.77Zm34.7,0a15.82,15.82,0,0,1,3.2.3,7.51,7.51,0,0,1,2.4.9,4.36,4.36,0,0,1,1.6,1.7,5.4,5.4,0,0,1,.6,2.7,5.22,5.22,0,0,1-.8,2.9,6.16,6.16,0,0,1-2.5,1.9,5.6,5.6,0,0,1,3.3,2.1,6.24,6.24,0,0,1,1.1,3.7,5.56,5.56,0,0,1-.7,3,7.56,7.56,0,0,1-1.9,2.1,11.07,11.07,0,0,1-2.7,1.2,11.24,11.24,0,0,1-3.2.4H106V53.87h11.3Zm-.7,9.2a3.92,3.92,0,0,0,2.3-.6,2.34,2.34,0,0,0,.9-2.1,2.5,2.5,0,0,0-.3-1.3,3,3,0,0,0-.8-.8,3.37,3.37,0,0,0-1.2-.4,6.15,6.15,0,0,0-1.4-.1h-5V63Zm.3,9.7a7.57,7.57,0,0,0,1.5-.1,5,5,0,0,0,1.3-.5,2,2,0,0,0,.9-.9,3.34,3.34,0,0,0,.3-1.5,2.85,2.85,0,0,0-1.1-2.5,4.65,4.65,0,0,0-2.8-.8h-5.8v6.3Zm31-18.9V58h-12.8v4.9h11.7v3.9h-11.7v5.6h13v4.2h-18.4V53.77Zm16.9,0a8.36,8.36,0,0,1,2.9.5,6.46,6.46,0,0,1,3.6,3.4,6.87,6.87,0,0,1,.5,2.4,6.76,6.76,0,0,1-.9,3.5,5.52,5.52,0,0,1-2.9,2.2v.1a3.45,3.45,0,0,1,1.6.8,12,12,0,0,1,1.1,1.2,4.42,4.42,0,0,1,.6,1.6c.1.6.2,1.1.3,1.7a6.15,6.15,0,0,0,.1,1.3c0,.5.1,1,.1,1.5a8,8,0,0,0,.3,1.5,2.73,2.73,0,0,0,.6,1.2h-5.3a6.69,6.69,0,0,1-.5-2.6c-.1-1-.2-2-.3-2.9a4.23,4.23,0,0,0-1.2-2.6,3.88,3.88,0,0,0-2.9-.8h-5.3v8.9h-5.3V53.87h12.9Zm-1.9,10.3a4.14,4.14,0,0,0,2.7-.8,3,3,0,0,0,.9-2.5,3,3,0,0,0-.9-2.4,4.15,4.15,0,0,0-2.7-.7h-5.8v6.4Z"></path></svg>
